<?xml version="1.0" encoding="UTF-8"?>
<svg width="60px" height="60px" viewBox="0 0 60 60" version="1.1" xmlns="http://www.w3.org/2000/svg" xmlns:xlink="http://www.w3.org/1999/xlink">
    <!-- Generator: Sketch 62 (91390) - https://sketch.com -->
    <title>timer_layout_right</title>
    <desc>Created with Sketch.</desc>
    <g id="Page-1" stroke="none" stroke-width="1" fill="none" fill-rule="evenodd">
        <g id="Desktop-HD" transform="translate(-518.000000, -392.000000)" fill="#0A94E3" fill-rule="nonzero" stroke="#0A94E3" stroke-width="3">
            <g id="timer_layout_right" transform="translate(520.000000, 394.000000)">
                <path d="M53,56 L3,56 C1.3457031,56 0,54.6542969 0,53 L0,3 C0,1.3457031 1.3457031,0 3,0 L53,0 C54.6542969,0 56,1.3457031 56,3 L56,53 C56,54.6542969 54.6542969,56 53,56 Z M3,2 C2.4482422,2 2,2.4487305 2,3 L2,53 C2,53.5512695 2.4482422,54 3,54 L53,54 C53.5517578,54 54,53.5512695 54,53 L54,3 C54,2.4487305 53.5517578,2 53,2 L3,2 Z" id="Shape"></path>
                <path d="M37,56 C36.4472656,56 36,55.5522461 36,55 L36,1 C36,0.4477539 36.4472656,0 37,0 C37.5527344,0 38,0.4477539 38,1 L38,55 C38,55.5522461 37.5527344,56 37,56 Z" id="Path"></path>
                <path d="M55,20 L37,20 C36.4472656,20 36,19.5522461 36,19 C36,18.4477539 36.4472656,18 37,18 L55,18 C55.5527344,18 56,18.4477539 56,19 C56,19.5522461 55.5527344,20 55,20 Z" id="Path"></path>
                <path d="M55,38 L37,38 C36.4472656,38 36,37.5522461 36,37 C36,36.4477539 36.4472656,36 37,36 L55,36 C55.5527344,36 56,36.4477539 56,37 C56,37.5522461 55.5527344,38 55,38 Z" id="Path"></path>
            </g>
        </g>
    </g>
</svg>