<?xml version="1.0" encoding="UTF-8"?>
<svg width="60px" height="60px" viewBox="0 0 60 60" version="1.1" xmlns="http://www.w3.org/2000/svg" xmlns:xlink="http://www.w3.org/1999/xlink">
    <!-- Generator: Sketch 62 (91390) - https://sketch.com -->
    <title>timer_layout_left</title>
    <desc>Created with Sketch.</desc>
    <g id="Page-1" stroke="none" stroke-width="1" fill="none" fill-rule="evenodd">
        <g id="Desktop-HD" transform="translate(-690.000000, -482.000000)" fill="#0A94E3" fill-rule="nonzero" stroke="#0A94E3" stroke-width="3">
            <g id="timer_layout_left" transform="translate(692.000000, 484.000000)">
                <path d="M53,56 L3,56 C1.3457031,56 0,54.6542969 0,53 L0,3 C0,1.3457031 1.3457031,0 3,0 L53,0 C54.6542969,0 56,1.3457031 56,3 L56,53 C56,54.6542969 54.6542969,56 53,56 Z M3,2 C2.4482422,2 2,2.4487305 2,3 L2,53 C2,53.5512695 2.4482422,54 3,54 L53,54 C53.5517578,54 54,53.5512695 54,53 L54,3 C54,2.4487305 53.5517578,2 53,2 L3,2 Z" id="Shape"></path>
                <path d="M19,56 C18.4472656,56 18,55.5522461 18,55 L18,1 C18,0.4477539 18.4472656,0 19,0 C19.5527344,0 20,0.4477539 20,1 L20,55 C20,55.5522461 19.5527344,56 19,56 Z" id="Path"></path>
                <path d="M19,20 L1,20 C0.4472656,20 0,19.5522461 0,19 C0,18.4477539 0.4472656,18 1,18 L19,18 C19.5527344,18 20,18.4477539 20,19 C20,19.5522461 19.5527344,20 19,20 Z" id="Path"></path>
                <path d="M19,38 L1,38 C0.4472656,38 0,37.5522461 0,37 C0,36.4477539 0.4472656,36 1,36 L19,36 C19.5527344,36 20,36.4477539 20,37 C20,37.5522461 19.5527344,38 19,38 Z" id="Path"></path>
            </g>
        </g>
    </g>
</svg>