<?xml version="1.0" encoding="UTF-8"?>
<svg width="812px" height="133px" viewBox="0 0 812 133" version="1.1" xmlns="http://www.w3.org/2000/svg" xmlns:xlink="http://www.w3.org/1999/xlink">
    <!-- Generator: Sketch 62 (91390) - https://sketch.com -->
    <title>Group 3</title>
    <desc>Created with Sketch.</desc>
    <g id="Page-1" stroke="none" stroke-width="1" fill="none" fill-rule="evenodd">
        <g id="Desktop-HD-Copy" transform="translate(-801.000000, -2775.000000)" fill="#FFFFFF">
            <g id="Group-3" transform="translate(794.000000, 2744.000000)">
                <path d="M215.864,139.62 C226.197333,139.62 235.042667,136.912667 242.4,131.498 C249.757333,126.083333 254.676,118.664 257.156,109.24 L257.156,109.24 L233.844,109.24 C232.108,112.877333 229.648667,115.646667 226.466,117.548 C223.283333,119.449333 219.666667,120.4 215.616,120.4 C209.085333,120.4 203.794667,118.126667 199.744,113.58 C195.693333,109.033333 193.668,102.957333 193.668,95.352 C193.668,87.7466667 195.693333,81.6706667 199.744,77.124 C203.794667,72.5773333 209.085333,70.304 215.616,70.304 C219.666667,70.304 223.283333,71.2546667 226.466,73.156 C229.648667,75.0573333 232.108,77.8266667 233.844,81.464 L233.844,81.464 L257.156,81.464 C254.676,72.04 249.757333,64.6 242.4,59.144 C235.042667,53.688 226.197333,50.96 215.864,50.96 C207.432,50.96 199.888667,52.8406667 193.234,56.602 C186.579333,60.3633333 181.392,65.6126667 177.672,72.35 C173.952,79.0873333 172.092,86.7546667 172.092,95.352 C172.092,103.949333 173.952,111.596 177.672,118.292 C181.392,124.988 186.579333,130.216667 193.234,133.978 C199.888667,137.739333 207.432,139.62 215.864,139.62 Z M296.34,139.744 C300.804,139.744 304.875333,138.814 308.554,136.954 C312.232667,135.094 315.146667,132.634667 317.296,129.576 L317.296,129.576 L317.296,139 L338.5,139 L338.5,69.808 L317.296,69.808 L317.296,107.38 C317.296,112.009333 316.097333,115.605333 313.7,118.168 C311.302667,120.730667 308.037333,122.012 303.904,122.012 C299.853333,122.012 296.629333,120.730667 294.232,118.168 C291.834667,115.605333 290.636,112.009333 290.636,107.38 L290.636,107.38 L290.636,69.808 L269.556,69.808 L269.556,110.232 C269.556,116.266667 270.672,121.516 272.904,125.98 C275.136,130.444 278.277333,133.854 282.328,136.21 C286.378667,138.566 291.049333,139.744 296.34,139.744 Z M396.284,139.992 C401.988,139.992 407.154667,138.524667 411.784,135.59 C416.413333,132.655333 420.071333,128.480667 422.758,123.066 C425.444667,117.651333 426.788,111.389333 426.788,104.28 C426.788,97.1706667 425.444667,90.9293333 422.758,85.556 C420.071333,80.1826667 416.413333,76.0493333 411.784,73.156 C407.154667,70.2626667 401.988,68.816 396.284,68.816 C391.489333,68.816 387.232,69.808 383.512,71.792 C379.792,73.776 376.94,76.38 374.956,79.604 L374.956,79.604 L374.956,47.24 L353.752,47.24 L353.752,139 L374.956,139 L374.956,129.328 C377.022667,132.552 379.874667,135.135333 383.512,137.078 C387.149333,139.020667 391.406667,139.992 396.284,139.992 Z M389.96,121.516 C385.744,121.516 382.168667,119.986667 379.234,116.928 C376.299333,113.869333 374.832,109.694667 374.832,104.404 C374.832,99.1133333 376.299333,94.9386667 379.234,91.88 C382.168667,88.8213333 385.744,87.292 389.96,87.292 C394.258667,87.292 397.875333,88.8006667 400.81,91.818 C403.744667,94.8353333 405.212,98.9893333 405.212,104.28 C405.212,109.570667 403.724,113.766 400.748,116.866 C397.772,119.966 394.176,121.516 389.96,121.516 Z M468.7,139.992 C474.321333,139.992 479.405333,138.958667 483.952,136.892 C488.498667,134.825333 492.280667,131.973333 495.298,128.336 C498.315333,124.698667 500.402667,120.606667 501.56,116.06 L501.56,116.06 L478.992,116.06 C476.925333,120.524 473.246667,122.756 467.956,122.756 C464.401333,122.756 461.404667,121.619333 458.966,119.346 C456.527333,117.072667 455.142667,113.786667 454.812,109.488 L454.812,109.488 L502.8,109.488 C503.048,107.338667 503.172,105.272 503.172,103.288 C503.172,96.344 501.704667,90.268 498.77,85.06 C495.835333,79.852 491.764,75.8426667 486.556,73.032 C481.348,70.2213333 475.396,68.816 468.7,68.816 C461.838667,68.816 455.762667,70.2626667 450.472,73.156 C445.181333,76.0493333 441.068667,80.1826667 438.134,85.556 C435.199333,90.9293333 433.732,97.212 433.732,104.404 C433.732,111.596 435.22,117.878667 438.196,123.252 C441.172,128.625333 445.305333,132.758667 450.596,135.652 C455.886667,138.545333 461.921333,139.992 468.7,139.992 Z M481.472,97.708 L454.936,97.708 C455.514667,93.9053333 457.023333,90.9706667 459.462,88.904 C461.900667,86.8373333 464.897333,85.804 468.452,85.804 C472.172,85.804 475.272,86.8786667 477.752,89.028 C480.232,91.1773333 481.472,94.0706667 481.472,97.708 L481.472,97.708 Z M546.944,139 C556.037333,139 564.035333,137.181333 570.938,133.544 C577.840667,129.906667 583.172667,124.781333 586.934,118.168 C590.695333,111.554667 592.576,103.990667 592.576,95.476 C592.576,86.8786667 590.695333,79.294 586.934,72.722 C583.172667,66.15 577.861333,61.0453333 571,57.408 C564.138667,53.7706667 556.12,51.952 546.944,51.952 L546.944,51.952 L514.332,51.952 L514.332,139 L546.944,139 Z M545.58,120.648 L535.536,120.648 L535.536,70.056 L545.58,70.056 C553.598667,70.056 559.84,72.288 564.304,76.752 C568.768,81.216 571,87.4573333 571,95.476 C571,103.494667 568.768,109.694667 564.304,114.076 C559.84,118.457333 553.598667,120.648 545.58,120.648 L545.58,120.648 Z M635.232,139.992 C640.853333,139.992 645.937333,138.958667 650.484,136.892 C655.030667,134.825333 658.812667,131.973333 661.83,128.336 C664.847333,124.698667 666.934667,120.606667 668.092,116.06 L668.092,116.06 L645.524,116.06 C643.457333,120.524 639.778667,122.756 634.488,122.756 C630.933333,122.756 627.936667,121.619333 625.498,119.346 C623.059333,117.072667 621.674667,113.786667 621.344,109.488 L621.344,109.488 L669.332,109.488 C669.58,107.338667 669.704,105.272 669.704,103.288 C669.704,96.344 668.236667,90.268 665.302,85.06 C662.367333,79.852 658.296,75.8426667 653.088,73.032 C647.88,70.2213333 641.928,68.816 635.232,68.816 C628.370667,68.816 622.294667,70.2626667 617.004,73.156 C611.713333,76.0493333 607.600667,80.1826667 604.666,85.556 C601.731333,90.9293333 600.264,97.212 600.264,104.404 C600.264,111.596 601.752,117.878667 604.728,123.252 C607.704,128.625333 611.837333,132.758667 617.128,135.652 C622.418667,138.545333 628.453333,139.992 635.232,139.992 Z M648.004,97.708 L621.468,97.708 C622.046667,93.9053333 623.555333,90.9706667 625.994,88.904 C628.432667,86.8373333 631.429333,85.804 634.984,85.804 C638.704,85.804 641.804,86.8786667 644.284,89.028 C646.764,91.1773333 648.004,94.0706667 648.004,97.708 L648.004,97.708 Z M709.012,139.992 C714.633333,139.992 719.572667,139.082667 723.83,137.264 C728.087333,135.445333 731.352667,132.944667 733.626,129.762 C735.899333,126.579333 737.036,122.962667 737.036,118.912 C736.953333,114.117333 735.692667,110.294 733.254,107.442 C730.815333,104.59 727.984,102.523333 724.76,101.242 C721.536,99.9606667 717.361333,98.6586667 712.236,97.336 C707.772,96.344 704.486,95.352 702.378,94.36 C700.27,93.368 699.216,91.88 699.216,89.896 C699.216,88.2426667 699.877333,86.9406667 701.2,85.99 C702.522667,85.0393333 704.424,84.564 706.904,84.564 C709.797333,84.564 712.132667,85.2666667 713.91,86.672 C715.687333,88.0773333 716.741333,89.9786667 717.072,92.376 L717.072,92.376 L736.664,92.376 C735.92,85.2666667 733.047333,79.5626667 728.046,75.264 C723.044667,70.9653333 716.204,68.816 707.524,68.816 C701.654667,68.816 696.591333,69.7666667 692.334,71.668 C688.076667,73.5693333 684.852667,76.1526667 682.662,79.418 C680.471333,82.6833333 679.376,86.3 679.376,90.268 C679.376,94.98 680.574667,98.7206667 682.972,101.49 C685.369333,104.259333 688.221333,106.284667 691.528,107.566 C694.834667,108.847333 698.968,110.066667 703.928,111.224 C708.557333,112.381333 711.905333,113.435333 713.972,114.386 C716.038667,115.336667 717.072,116.804 717.072,118.788 C717.072,120.441333 716.348667,121.784667 714.902,122.818 C713.455333,123.851333 711.409333,124.368 708.764,124.368 C705.870667,124.368 703.432,123.624 701.448,122.136 C699.464,120.648 698.348,118.705333 698.1,116.308 L698.1,116.308 L677.144,116.308 C677.474667,120.772 679.004,124.802 681.732,128.398 C684.46,131.994 688.18,134.825333 692.892,136.892 C697.604,138.958667 702.977333,139.992 709.012,139.992 Z M771.26,139 L771.26,109.984 L792.34,139 L818.628,139 L789.612,104.528 L818.38,69.808 L792.216,69.808 L771.26,97.956 L771.26,47.24 L750.056,47.24 L750.056,139 L771.26,139 Z" id="CubeDesk" fill-rule="nonzero"></path>
                <g id="logo">
                    <polygon id="Rectangle" transform="translate(70.487997, 59.594398) rotate(45.000000) translate(-70.487997, -59.594398) " points="50.8223177 39.9287181 112.567196 17.5151993 90.2449763 79.3513768 28.4087989 101.673596"></polygon>
                    <g id="Group-2" transform="translate(0.000000, 62.194246)">
                        <path d="M11.6881948,15.1593245 L67.0266669,15.1593245 L67.0266669,15.1593245 L75.1458216,32.570908 L8.32831514,32.5300698 L5.06996295,25.5569796 C3.36200264,21.9018311 4.94051058,17.5541724 8.5956591,15.8462121 C9.56385181,15.3937996 10.6195161,15.1593245 11.6881948,15.1593245 Z" id="Rectangle" transform="translate(37.678609, 23.865116) rotate(25.000000) translate(-37.678609, -23.865116) "></path>
                        <polygon id="Rectangle" transform="translate(15.431784, 39.534066) rotate(90.000000) translate(-15.431784, -39.534066) " points="-2.40270512 31.5185233 42.0840675 31.5185233 36.0250026 47.5496079 -11.2204999 47.5496079"></polygon>
                        <path d="M0.218137863,68.8708088 L67.1142897,68.9880583 L75.1932968,86.3135448 L12.9293104,86.1486721 C10.1006075,86.1411818 7.53047865,84.5012954 6.33181941,81.9391025 L0.218137863,68.8708088 L0.218137863,68.8708088 Z" id="Rectangle" transform="translate(37.705717, 77.592177) rotate(25.000000) translate(-37.705717, -77.592177) "></path>
                    </g>
                    <g id="Group-2" transform="translate(102.335195, 113.194246) scale(-1, 1) translate(-102.335195, -113.194246) translate(64.335195, 62.194246)">
                        <path d="M11.4012748,15.1593245 L67.0266669,15.1593245 L67.0266669,15.1593245 L75.1458216,32.570908 L8.32831514,32.5300698 L4.94849878,25.2970382 C3.28323749,21.7332684 4.82228273,17.4943012 8.38605254,15.8290399 C9.33004042,15.3879377 10.3593131,15.1593245 11.4012748,15.1593245 Z" id="Rectangle" transform="translate(37.678609, 23.865116) rotate(25.000000) translate(-37.678609, -23.865116) "></path>
                        <polygon id="Rectangle" transform="translate(15.417004, 40.493959) rotate(90.000000) translate(-15.417004, -40.493959) " points="-3.03728854 32.4636376 41.875818 32.4636376 37.0052824 48.5242809 -11.0418091 48.4947222"></polygon>
                        <polygon id="Rectangle" transform="translate(59.937390, 60.879952) rotate(90.000000) translate(-59.937390, -60.879952) " points="32.8641074 52.8644099 91.4386897 52.8644099 86.8327258 68.8954945 28.4360905 68.8954945"></polygon>
                        <path d="M0.218137863,68.8708088 L67.1142897,68.9880583 L75.1932968,86.3135448 L12.8134632,86.1483654 C10.0554779,86.1410623 7.54960227,84.542173 6.3809095,82.044035 L0.218137863,68.8708088 L0.218137863,68.8708088 Z" id="Rectangle" transform="translate(37.705717, 77.592177) rotate(25.000000) translate(-37.705717, -77.592177) "></path>
                    </g>
                </g>
            </g>
        </g>
    </g>
</svg>