<?xml version="1.0" encoding="UTF-8"?>
<svg width="216px" height="216px" viewBox="0 0 216 216" version="1.1" xmlns="http://www.w3.org/2000/svg" xmlns:xlink="http://www.w3.org/1999/xlink">
    <!-- Generator: Sketch 62 (91390) - https://sketch.com -->
    <title>cube</title>
    <desc>Created with Sketch.</desc>
    <g id="Page-1" stroke="none" stroke-width="1" fill="none" fill-rule="evenodd">
        <g id="Desktop-HD-Copy" transform="translate(-138.000000, -131.000000)" fill="#3F464F">
            <g id="cube" transform="translate(138.000000, 131.000000)">
                <rect id="Rectangle" x="27" y="27" width="50" height="50" rx="7"></rect>
                <rect id="Rectangle" x="83" y="27" width="50" height="50" rx="7"></rect>
                <rect id="Rectangle" x="27" y="83" width="50" height="50" rx="7"></rect>
                <rect id="Rectangle" x="83" y="83" width="50" height="50" rx="7"></rect>
                <rect id="Rectangle" x="139" y="83" width="50" height="50" rx="7"></rect>
                <rect id="Rectangle" x="27" y="139" width="50" height="50" rx="7"></rect>
                <rect id="Rectangle" x="83" y="139" width="50" height="50" rx="7"></rect>
                <rect id="Rectangle" x="139" y="139" width="50" height="50" rx="7"></rect>
                <rect id="Rectangle" x="27" y="0" width="50" height="21" rx="10.5"></rect>
                <rect id="Rectangle" x="83" y="0" width="50" height="21" rx="10.5"></rect>
                <rect id="Rectangle" x="139" y="0" width="50" height="21" rx="10.5"></rect>
                <rect id="Rectangle" x="195" y="27" width="21" height="50" rx="10.5"></rect>
                <rect id="Rectangle" x="195" y="83" width="21" height="50" rx="10.5"></rect>
                <rect id="Rectangle" x="195" y="139" width="21" height="50" rx="10.5"></rect>
                <rect id="Rectangle" x="0" y="27" width="21" height="50" rx="10.5"></rect>
                <rect id="Rectangle" x="0" y="83" width="21" height="50" rx="10.5"></rect>
                <rect id="Rectangle" x="0" y="139" width="21" height="50" rx="10.5"></rect>
                <rect id="Rectangle" x="27" y="195" width="50" height="21" rx="10.5"></rect>
                <rect id="Rectangle" x="83" y="195" width="50" height="21" rx="10.5"></rect>
                <rect id="Rectangle" x="139" y="195" width="50" height="21" rx="10.5"></rect>
                <rect id="Rectangle" x="139" y="27" width="50" height="50" rx="7"></rect>
            </g>
        </g>
    </g>
</svg>