<svg fill="#000000" xmlns="http://www.w3.org/2000/svg"  viewBox="0 0 512 512" width="64px" height="64px"><path d="M 341.21094 22.107422 A 6.0002129 6.0002129 0 0 0 335.75781 31.115234 L 349.35742 54.515625 A 179.271 179.271 0 0 0 282.80078 32.382812 A 6 6 0 1 0 281.33594 44.292969 L 281.33789 44.292969 A 167.091 167.091 0 0 1 347.03711 67.076172 L 322.4375 81.335938 A 6.0000468 6.0000468 0 0 0 328.45508 91.71875 L 365.44336 70.277344 A 6 6 0 0 0 367.62305 62.072266 L 346.13281 25.087891 A 6.0002129 6.0002129 0 0 0 341.21094 22.107422 z M 257.6875 31.103516 A 172.547 172.547 0 0 0 236.61133 32.849609 A 6 6 0 0 0 237.46875 44.789062 L 237.47266 44.792969 A 5.974 5.974 0 0 0 238.3418 44.728516 A 160.689 160.689 0 0 1 257.94141 43.103516 A 6.0013545 6.0013545 0 1 0 257.6875 31.103516 z M 205.88281 40.669922 A 6 6 0 0 0 203.7832 41.039062 A 168.677 168.677 0 0 0 182.5957 50.339844 A 173.407 173.407 0 0 0 145.5 76.574219 A 6 6 0 0 0 149.57031 86.982422 L 149.57227 86.982422 A 5.979 5.979 0 0 0 153.64062 85.392578 A 161.352 161.352 0 0 1 188.16406 60.972656 A 156.587 156.587 0 0 1 207.83984 52.332031 A 6 6 0 0 0 205.88281 40.669922 z M 255.39062 80.826172 A 21.174 21.174 0 0 0 234.83398 101.99023 C 234.83398 102.22923 234.86114 102.46222 234.86914 102.69922 L 127.15625 137.53711 A 21.157 21.157 0 0 0 109.05078 127.2793 A 21.376 21.376 0 0 0 87.669922 148.44922 A 20.942 20.942 0 0 0 103 168.83594 L 103 181.89453 C 22.191 195.74853 5 215.3825 5 229.5625 C 5 244.8825 24.241922 257.93261 62.169922 268.34961 C 74.183922 271.64961 87.93 274.61903 103 277.20703 L 103 331.90039 A 20.942 20.942 0 0 0 87.669922 352.28711 A 21.266 21.266 0 0 0 125.25977 365.81836 L 234.85938 408.08203 C 234.84037 408.44503 234.81641 408.80292 234.81641 409.16992 A 21.174 21.174 0 0 0 277.16406 409.16992 C 277.16406 408.79992 277.13033 408.43931 277.11133 408.07031 L 385.9707 365.82227 A 21.132 21.132 0 0 0 402.94727 374.40039 A 21.375 21.375 0 0 0 424.32812 353.23047 A 20.94 20.94 0 0 0 409 332.84375 L 409 277.22852 C 419.7 275.38652 429.77612 273.34333 439.07812 271.11133 C 484.14813 260.29933 507 246.3155 507 229.5625 C 507 215.3825 489.81 195.74853 409 181.89453 L 409 169.7832 A 20.941 20.941 0 0 0 424.33008 149.40039 A 21.263 21.263 0 0 0 385.37891 137.69922 L 277.16016 102.69922 C 277.16816 102.46222 277.18164 102.22923 277.18164 101.99023 A 21.174 21.174 0 0 0 255.39062 80.826172 z M 256 92.824219 A 9.169 9.169 0 1 1 246.83008 101.99414 A 9.179 9.179 0 0 1 256 92.824219 z M 238.65234 114.0918 A 21.121 21.121 0 0 0 273.34766 114.0918 L 305.1543 124.37695 L 260.70703 139.84766 L 214.32617 121.95703 L 238.65234 114.0918 z M 196.18359 127.82422 L 243.17383 145.94727 L 176.47461 169.16211 L 130.0293 151.13867 C 130.1113 150.49167 130.16159 149.83792 130.18359 149.16992 L 196.18359 127.82422 z M 324.07617 130.5 L 381.79297 149.16406 C 381.79297 149.24306 381.7793 149.32139 381.7793 149.40039 C 381.7793 149.97839 381.82119 150.54728 381.86719 151.11328 L 336.06641 168.91211 L 278.02539 146.52539 L 324.07617 130.5 z M 109.31836 139.2832 A 9.169 9.169 0 0 1 109.05078 157.61719 A 9.18 9.18 0 0 1 99.882812 148.44922 A 9.169 9.169 0 0 1 109.31836 139.2832 z M 402.56836 140.23242 A 9.169 9.169 0 0 1 412.11719 149.39258 A 9.179 9.179 0 0 1 402.94922 158.56641 L 402.94922 158.5625 A 9.169 9.169 0 0 1 402.56836 140.23242 z M 260.5 152.62695 L 319.46484 175.36719 L 272.83398 193.49023 A 21.127 21.127 0 0 0 256 185.11133 A 21.125 21.125 0 0 0 239.16992 193.49219 L 193.73633 175.86133 L 260.5 152.62695 z M 124.78516 162.12891 L 170 179.66211 L 170 263.72852 L 115 242.4082 L 115 168.63281 A 20.514 20.514 0 0 0 124.78516 162.12891 z M 386.59961 162.30078 C 389.21161 165.68278 392 168.26403 397 169.58203 L 397 242.41211 L 342 263.73242 L 342 179.62109 L 386.59961 162.30078 z M 330 184.28516 L 330 268.38867 L 311.85352 275.38867 C 302.04152 275.88867 292.06449 276.25681 281.92383 276.49414 A 6 6 0 0 0 279.46094 287.89453 L 262 294.63867 L 262 226.57031 A 21.2 21.2 0 0 0 277.16992 206.28125 C 277.16992 205.75025 277.30953 205.22998 277.26953 204.70898 L 330 184.28516 z M 182 184.32031 L 234.72852 204.71289 C 234.69052 205.23189 234.74023 205.75225 234.74023 206.28125 A 21.28 21.28 0 0 0 250 226.57031 L 250 277.11328 A 6.031 6.031 0 0 0 248.96875 276.30664 L 199.09961 245.95312 A 5.986 5.986 0 0 0 190 251.07812 L 190 271.47852 L 182 268.39062 L 182 184.32031 z M 409 194.07227 C 476.651 205.93927 495 221.8275 495 229.5625 C 495 233.8115 490.09936 238.8593 481.19336 243.7793 L 481.19336 243.77539 C 470.83036 249.50239 455.71934 254.77645 436.27734 259.43945 C 427.80834 261.47245 418.677 263.33887 409 265.04688 L 409 194.07227 z M 103.00586 194.08008 L 103.00586 265.03516 C 89.134859 262.59916 76.473656 259.83334 65.347656 256.77734 C 29.707656 246.98934 17.005859 236.3015 17.005859 229.5625 C 17.005859 219.2485 43.683859 204.51508 103.00586 194.08008 z M 256.26562 197.11523 A 9.169 9.169 0 0 1 256 215.44922 A 9.179 9.179 0 0 1 246.83008 206.28125 L 246.82812 206.28125 A 9.169 9.169 0 0 1 256.26562 197.11523 z M 115 255.2832 L 159.2793 272.44922 C 143.6873 270.97822 128.838 269.14867 115 267.01367 L 115 255.2832 z M 397 255.2832 L 397 267.03125 C 383.125 269.17725 368.2745 270.99789 352.6875 272.46289 L 397 255.2832 z M 202 261.75391 L 234.32812 281.43164 L 202 301.10938 L 202 261.75391 z M 115 279.14453 C 132.063 281.73153 150.567 283.84564 170 285.43164 L 170 370.32812 L 129.87695 354.78125 A 21.411 21.411 0 0 0 129.91797 352.28125 A 20.782 20.782 0 0 0 115 332.09961 L 115 279.14453 z M 397 279.16992 L 397 333.04492 A 20.863 20.863 0 0 0 381.99219 353.22461 C 381.99219 353.22461 381.99219 353.22656 381.99219 353.22656 A 20.863 20.863 0 0 0 381.99219 353.22852 C 381.99285 353.67316 382.10685 354.10916 382.13477 354.54688 L 342 370.1543 L 342 285.43945 C 361.446 283.86545 379.923 281.75992 397 279.16992 z M 250 285.75195 L 250 294.63867 L 241.26367 291.24805 L 248.9707 286.55664 A 5.969 5.969 0 0 0 250 285.75195 z M 182 286.33008 C 184.65267 286.51274 187.31933 286.68628 190 286.84961 L 190 311.78516 A 5.988 5.988 0 0 0 199.09961 316.91016 L 228.3457 299.11133 L 249.99609 307.51172 L 249.99609 388.87695 A 21.677 21.677 0 0 0 238.69922 396.75977 L 182 374.95898 L 182 286.33008 z M 330 286.33203 L 330 374.8125 L 273.28906 396.75 A 21.676 21.676 0 0 0 262 388.875 L 262 307.50977 L 314.41406 287.27734 C 319.66406 286.99934 324.86 286.68403 330 286.33203 z M 108.66602 343.12109 A 9.169 9.169 0 0 1 118.2168 352.28125 A 9.18 9.18 0 0 1 109.05078 361.45117 L 109.04688 361.45117 A 9.169 9.169 0 0 1 108.66602 343.12109 z M 402.94922 344.05664 A 9.179 9.179 0 0 1 412.11719 353.22656 A 9.179 9.179 0 0 1 412.11719 353.22852 A 9.169 9.169 0 1 1 402.94922 344.05664 z M 382.74414 376.05273 A 6 6 0 0 0 380.62891 376.49219 L 377.76367 377.625 A 6 6 0 1 0 382.17188 388.78516 L 385.03711 387.65234 A 6 6 0 0 0 382.74414 376.05273 z M 359.98633 385.02344 A 6.0003338 6.0003338 0 0 0 357.99023 385.43945 L 301.82617 407.62891 A 6 6 0 1 0 306.23438 418.78711 L 306.23047 418.78711 L 362.40039 396.59961 A 6.0003338 6.0003338 0 0 0 359.98633 385.02344 z M 255.61914 400.00391 A 9.169 9.169 0 0 1 265.16992 409.16406 A 9.179 9.179 0 0 1 256 418.33398 A 9.169 9.169 0 0 1 255.61914 400.00391 z M 186.65234 419.47461 A 6.0000468 6.0000468 0 0 0 183.54492 420.28125 L 146.55664 441.72266 A 6 6 0 0 0 144.37695 449.92773 L 165.86719 486.91211 A 6.0002129 6.0002129 0 1 0 176.24219 480.88477 L 162.64258 457.48438 A 179.271 179.271 0 0 0 229.19922 479.61719 A 6.186 6.186 0 0 0 229.93945 479.66211 A 6 6 0 0 0 230.66406 467.70703 L 230.66211 467.70703 A 167.091 167.091 0 0 1 164.96289 444.92383 L 189.5625 430.66406 A 6.0000468 6.0000468 0 0 0 186.65234 419.47461 z M 362.41016 425.01953 A 6.0003484 6.0003484 0 0 0 358.36328 426.61133 L 358.35938 426.60742 A 161.352 161.352 0 0 1 323.83594 451.02734 A 156.587 156.587 0 0 1 304.16016 459.66797 A 6 6 0 1 0 308.2168 470.96094 A 168.677 168.677 0 0 0 329.4043 461.66016 A 173.407 173.407 0 0 0 366.50391 435.42969 A 6.0003484 6.0003484 0 0 0 362.41016 425.01953 z M 274.43555 467.21875 A 6 6 0 0 0 273.66211 467.27539 L 273.6582 467.27148 A 160.689 160.689 0 0 1 254.05859 468.89648 A 6.0003255 6.0003255 0 1 0 254.18359 480.89648 L 254.3125 480.89648 A 172.547 172.547 0 0 0 275.38867 479.15039 A 6 6 0 0 0 274.43555 467.21875 z"/></svg>