<?xml version="1.0" encoding="UTF-8"?>
<svg width="588px" height="617px" viewBox="0 0 588 617" version="1.1" xmlns="http://www.w3.org/2000/svg" xmlns:xlink="http://www.w3.org/1999/xlink">
    <!-- Generator: Sketch 62 (91390) - https://sketch.com -->
    <title>logo</title>
    <desc>Created with Sketch.</desc>
    <g id="Page-1" stroke="none" stroke-width="1" fill="none" fill-rule="evenodd">
        <g id="Artboard" transform="translate(-1814.000000, -527.000000)" fill="#000000">
            <path d="M1847.42719,689.049186 C1852.30528,689.045321 1857.12482,690.111779 1861.54588,692.173352 L2097.56521,802.230971 L2097.56521,892.17272 L2097.549,892.165 L2097.549,1054.22 L2097.74772,1054.3133 L2097.74772,1143.8103 L1833.39602,1019.68782 C1821.7083,1014.20002 1814.23931,1002.45791 1814.22322,989.54596 L1814.186,960.078 L1814,960.022282 L1814.129,749.09 L1814.10868,722.420675 C1814.09406,704.004747 1829.01126,689.063827 1847.42719,689.049186 Z M2367.55373,689.536764 C2386.44186,689.551781 2401.74155,704.875801 2401.72656,723.763933 L2401.72656,723.763933 L2401.69792,759.797666 L2401.69792,950.869881 L2401.66,950.883 L2401.61375,989.003603 C2401.59744,1002.09441 2394.11185,1014.01281 2382.36099,1019.72171 L2381.94935,1019.91833 L2118.08858,1143.8103 L2118.08858,1054.3133 L2326.646,956.615 L2326.646,794.85 L2118.27109,892.17272 L2118.27109,802.230971 L2353.07301,692.741038 C2357.60743,690.626604 2362.55055,689.5328 2367.55373,689.536764 Z M1889.19,794.85 L1889.19,956.616 L2022.497,1019.063 L2022.497,857.111 L1889.19,794.85 Z M2106.41815,527 L2385.01822,657.20352 L2106.41815,788.01152 L1827.81808,657.20352 L2106.41815,527 Z" id="logo" transform="translate(2107.863283, 835.405150) scale(-1, 1) translate(-2107.863283, -835.405150) "></path>
        </g>
    </g>
</svg>