<?xml version="1.0" ?><svg data-name="Layer 1" id="Layer_1" viewBox="0 0 128 128" xmlns="http://www.w3.org/2000/svg"><title/><g><path d="M117.64361,35.05519l.00094-1.20236a2.0591,2.0591,0,0,0-1.04962-1.81812l-8.32374-4.68052-.07131.04122L64.00014,1.203,19.77552,27.41022l-.14728-.08508-8.22289,4.739a2.05924,2.05924,0,0,0-1.04962,1.81812l.01338,1.1805-.01351-.008V96.32747l51.69887,30.63639v-.10418l.89605.51824a2.05884,2.05884,0,0,0,2.09924,0l.89605-.53093v.11687l51.69887-30.63639V35.05468Z" style="fill: #353535"/><g><path d="M117.65431,53.60658l-14.11337,8.36348a1.02945,1.02945,0,0,1-1.55426-.88563V44.29906a2.0589,2.0589,0,0,1,1.00927-1.77125l14.11337-8.36348a1.02945,1.02945,0,0,1,1.55426.88563V51.83533A2.0589,2.0589,0,0,1,117.65431,53.60658Z" style="fill: #edcb48"/><path d="M80.59426,119.49113,66.4809,127.8546a1.02945,1.02945,0,0,1-1.55426-.88563V110.18361a2.0589,2.0589,0,0,1,1.00927-1.77125l14.11337-8.36348a1.02945,1.02945,0,0,1,1.55426.88563v16.78537A2.0589,2.0589,0,0,1,80.59426,119.49113Z" style="fill: #edcb48"/><path d="M99.12443,108.505l-14.11337,8.36348a1.02945,1.02945,0,0,1-1.55426-.88563V99.19746a2.0589,2.0589,0,0,1,1.00927-1.77125l14.11337-8.36348a1.02945,1.02945,0,0,1,1.55426.88563v16.78537A2.0589,2.0589,0,0,1,99.12443,108.505Z" style="fill: #edcb48"/><path d="M117.65431,97.52956,103.54094,105.893a1.02945,1.02945,0,0,1-1.55426-.88563V88.222a2.0589,2.0589,0,0,1,1.00927-1.77125l14.11337-8.36348a1.02945,1.02945,0,0,1,1.55426.88563V95.75831A2.0589,2.0589,0,0,1,117.65431,97.52956Z" style="fill: #edcb48"/><path d="M117.65431,75.56789l-14.11337,8.36348a1.02945,1.02945,0,0,1-1.55426-.88563V66.26037a2.0589,2.0589,0,0,1,1.00927-1.77125l14.11337-8.36348a1.02945,1.02945,0,0,1,1.55426.88563V73.79664A2.0589,2.0589,0,0,1,117.65431,75.56789Z" style="fill: #edcb48"/><path d="M99.12443,64.58723,85.01106,72.95071a1.02945,1.02945,0,0,1-1.55426-.88563V55.27971a2.0589,2.0589,0,0,1,1.00927-1.77125L98.57943,45.145a1.02945,1.02945,0,0,1,1.55426.88563V62.816A2.0589,2.0589,0,0,1,99.12443,64.58723Z" style="fill: #edcb48"/><path d="M99.12443,86.54854,85.01106,94.912a1.02945,1.02945,0,0,1-1.55426-.88563V77.241a2.0589,2.0589,0,0,1,1.00927-1.77125L98.57943,67.1063a1.02945,1.02945,0,0,1,1.55426.88563V84.77729A2.0589,2.0589,0,0,1,99.12443,86.54854Z" style="fill: #edcb48"/><path d="M80.59426,75.56789,66.4809,83.93137a1.02945,1.02945,0,0,1-1.55426-.88563V66.26037a2.0589,2.0589,0,0,1,1.00927-1.77125l14.11337-8.36348a1.02945,1.02945,0,0,1,1.55426.88563V73.79664A2.0589,2.0589,0,0,1,80.59426,75.56789Z" style="fill: #edcb48"/><path d="M81.0989,97.23016l-14.618,8.66252a1.02945,1.02945,0,0,1-1.55426-.88563V88.22168a2.0589,2.0589,0,0,1,1.00927-1.77125L80.04927,78.087a1.02945,1.02945,0,0,1,1.55426.88563v17.372A1.02945,1.02945,0,0,1,81.0989,97.23016Z" style="fill: #edcb48"/></g><g><path d="M10.34569,53.60658l14.11337,8.36348a1.02945,1.02945,0,0,0,1.55426-.88563V44.29906a2.0589,2.0589,0,0,0-1.00927-1.77125L10.89069,34.16433A1.02945,1.02945,0,0,0,9.33642,35.05V51.83533A2.0589,2.0589,0,0,0,10.34569,53.60658Z" style="fill: #ca4d46"/><path d="M47.40574,119.49113,61.5191,127.8546a1.02945,1.02945,0,0,0,1.55426-.88563V110.18361a2.0589,2.0589,0,0,0-1.00927-1.77125l-14.11337-8.36348a1.02945,1.02945,0,0,0-1.55426.88563v16.78537A2.0589,2.0589,0,0,0,47.40574,119.49113Z" style="fill: #ca4d46"/><path d="M28.87557,108.505l14.11337,8.36348a1.02945,1.02945,0,0,0,1.55426-.88563V99.19746a2.0589,2.0589,0,0,0-1.00927-1.77125L29.42057,89.06273a1.02945,1.02945,0,0,0-1.55426.88563v16.78537A2.0589,2.0589,0,0,0,28.87557,108.505Z" style="fill: #ca4d46"/><path d="M10.34569,97.52956,24.45906,105.893a1.02945,1.02945,0,0,0,1.55426-.88563V88.222a2.0589,2.0589,0,0,0-1.00927-1.77125L10.89069,78.08731a1.02945,1.02945,0,0,0-1.55426.88563V95.75831A2.0589,2.0589,0,0,0,10.34569,97.52956Z" style="fill: #ca4d46"/><path d="M10.34569,75.56789l14.11337,8.36348a1.02945,1.02945,0,0,0,1.55426-.88563V66.26037a2.0589,2.0589,0,0,0-1.00927-1.77125L10.89069,56.12564a1.02945,1.02945,0,0,0-1.55426.88563V73.79664A2.0589,2.0589,0,0,0,10.34569,75.56789Z" style="fill: #ca4d46"/><path d="M28.87557,64.58723l14.11337,8.36348a1.02945,1.02945,0,0,0,1.55426-.88563V55.27971a2.0589,2.0589,0,0,0-1.00927-1.77125L29.42057,45.145a1.02945,1.02945,0,0,0-1.55426.88563V62.816A2.0589,2.0589,0,0,0,28.87557,64.58723Z" style="fill: #ca4d46"/><path d="M28.87557,86.54854,42.98894,94.912a1.02945,1.02945,0,0,0,1.55426-.88563V77.241a2.0589,2.0589,0,0,0-1.00927-1.77125L29.42057,67.1063a1.02945,1.02945,0,0,0-1.55426.88563V84.77729A2.0589,2.0589,0,0,0,28.87557,86.54854Z" style="fill: #ca4d46"/><path d="M47.40574,75.56789,61.5191,83.93137a1.02945,1.02945,0,0,0,1.55426-.88563V66.26037a2.0589,2.0589,0,0,0-1.00927-1.77125L47.95073,56.12564a1.02945,1.02945,0,0,0-1.55426.88563V73.79664A2.0589,2.0589,0,0,0,47.40574,75.56789Z" style="fill: #ca4d46"/><path d="M46.9011,97.23016l14.618,8.66252a1.02945,1.02945,0,0,0,1.55426-.88563V88.22168a2.0589,2.0589,0,0,0-1.00927-1.77125L47.95073,78.087a1.02945,1.02945,0,0,0-1.55426.88563v17.372A1.02945,1.02945,0,0,0,46.9011,97.23016Z" style="fill: #ca4d46"/></g><g><path d="M62.95051,22.24932l-14.13277,8.375a1.02945,1.02945,0,0,0,0,1.77125l14.13277,8.375a2.0589,2.0589,0,0,0,2.09926,0l14.13277-8.375a1.02945,1.02945,0,0,0,0-1.77125l-14.13277-8.375A2.0589,2.0589,0,0,0,62.95051,22.24932Z" style="fill: #6088a5"/><path d="M25.89018,22.24932l-14.13277,8.375a1.02945,1.02945,0,0,0,0,1.77125l14.13277,8.375a2.0589,2.0589,0,0,0,2.09926,0l14.13277-8.375a1.02945,1.02945,0,0,0,0-1.77125l-14.13277-8.375A2.0589,2.0589,0,0,0,25.89018,22.24932Z" style="fill: #6088a5"/><path d="M44.42007,11.26865l-14.13277,8.375a1.02945,1.02945,0,0,0,0,1.77125l14.13277,8.375a2.0589,2.0589,0,0,0,2.09926,0l14.13277-8.375a1.02945,1.02945,0,0,0,0-1.77125l-14.13277-8.375A2.0589,2.0589,0,0,0,44.42007,11.26865Z" style="fill: #6088a5"/><path d="M44.42007,33.23,30.2873,41.605a1.02945,1.02945,0,0,0,0,1.77125l14.13277,8.375a2.0589,2.0589,0,0,0,2.09926,0l14.13277-8.375a1.02945,1.02945,0,0,0,0-1.77125L46.51933,33.23A2.0589,2.0589,0,0,0,44.42007,33.23Z" style="fill: #6088a5"/><path d="M81.48039,33.23,67.34762,41.605a1.02945,1.02945,0,0,0,0,1.77125l14.13277,8.375a2.0589,2.0589,0,0,0,2.09926,0l14.13277-8.375a1.02945,1.02945,0,0,0,0-1.77125L83.57965,33.23A2.0589,2.0589,0,0,0,81.48039,33.23Z" style="fill: #6088a5"/><path d="M81.48095,11.26865l-14.13277,8.375a1.02945,1.02945,0,0,0,0,1.77125l14.13277,8.375a2.0589,2.0589,0,0,0,2.09926,0l14.13277-8.375a1.02945,1.02945,0,0,0,0-1.77125l-14.13277-8.375A2.0589,2.0589,0,0,0,81.48095,11.26865Z" style="fill: #6088a5"/><path d="M100.01083,22.24932l-14.13277,8.375a1.02945,1.02945,0,0,0,0,1.77125l14.13277,8.375a2.0589,2.0589,0,0,0,2.09926,0l14.13277-8.375a1.02945,1.02945,0,0,0,0-1.77125l-14.13277-8.375A2.0589,2.0589,0,0,0,100.01083,22.24932Z" style="fill: #6088a5"/><path d="M62.95051.28765l-14.13277,8.375a1.02945,1.02945,0,0,0,0,1.77125l14.13277,8.375a2.0589,2.0589,0,0,0,2.09926,0l14.13277-8.375a1.02945,1.02945,0,0,0,0-1.77125L65.04977.28765A2.0589,2.0589,0,0,0,62.95051.28765Z" style="fill: #6088a5"/><path d="M62.95051,44.21067l-14.13277,8.375a1.02945,1.02945,0,0,0,0,1.77125l14.13277,8.375a2.0589,2.0589,0,0,0,2.09926,0l14.13277-8.375a1.02945,1.02945,0,0,0,0-1.77125l-14.13277-8.375A2.0589,2.0589,0,0,0,62.95051,44.21067Z" style="fill: #6088a5"/></g></g></svg>