<?xml version="1.0" encoding="UTF-8"?>
<svg width="589px" height="618px" viewBox="0 0 589 618" version="1.1" xmlns="http://www.w3.org/2000/svg" xmlns:xlink="http://www.w3.org/1999/xlink">
    <!-- Generator: Sketch 62 (91390) - https://sketch.com -->
    <title>logo</title>
    <desc>Created with Sketch.</desc>
    <g id="Page-1" stroke="none" stroke-width="1" fill="none" fill-rule="evenodd">
        <g id="Artboard" transform="translate(-1048.000000, -526.000000)" fill="#FFFFFF">
            <path d="M1081.84534,688.845666 C1086.72343,688.841801 1091.54297,689.908259 1095.96403,691.969833 L1331.98336,802.027452 L1331.98336,891.9692 L1331.96715,891.96148 L1331.96715,1054.01648 L1332.16587,1054.10978 L1332.16587,1143.60678 L1067.81417,1019.4843 C1056.12645,1013.9965 1048.65746,1002.25439 1048.64137,989.342441 L1048.60415,959.87448 L1048.41815,959.818762 L1048.54715,748.88648 L1048.52683,722.217155 C1048.51221,703.801227 1063.42941,688.860307 1081.84534,688.845666 Z M1601.97188,689.333245 C1620.86001,689.348261 1636.1597,704.672282 1636.14471,723.560413 L1636.14471,723.560413 L1636.11607,759.594146 L1636.11607,950.666361 L1636.07815,950.67948 L1636.0319,988.800083 C1636.01559,1001.89089 1628.53,1013.80929 1616.77914,1019.51819 L1616.3675,1019.71481 L1352.50673,1143.60678 L1352.50673,1054.10978 L1561.06415,956.41148 L1561.06415,794.64648 L1352.68924,891.9692 L1352.68924,802.027452 L1587.49116,692.537518 C1592.02558,690.423084 1596.9687,689.329281 1601.97188,689.333245 Z M1123.60815,794.64648 L1123.60815,956.41248 L1256.91515,1018.85948 L1256.91515,856.90748 L1123.60815,794.64648 Z M1340.8363,526.79648 L1619.43637,657 L1340.8363,787.808 L1062.23623,657 L1340.8363,526.79648 Z" id="logo" transform="translate(1342.281433, 835.201630) scale(-1, 1) translate(-1342.281433, -835.201630) "></path>
        </g>
    </g>
</svg>