<?xml version="1.0" encoding="UTF-8"?>
<svg width="199px" height="194px" viewBox="0 0 199 194" version="1.1" xmlns="http://www.w3.org/2000/svg" xmlns:xlink="http://www.w3.org/1999/xlink">
    <title>github_logo</title>
    <g id="Page-1" stroke="none" stroke-width="1" fill="none" fill-rule="evenodd">
        <g id="Artboard" transform="translate(-70.000000, -365.000000)" fill="#000000">
            <g id="github_logo" transform="translate(70.000000, 365.000000)">
                <path d="M99.5,0 C44.52625,0 0,44.5054425 0,99.4535028 C0,143.461678 28.481875,180.632424 68.033125,193.810014 C73.008125,194.680232 74.87375,191.696627 74.87375,189.085972 C74.87375,186.723951 74.749375,178.891988 74.749375,170.562757 C49.75,175.162482 43.2825,164.47123 41.2925,158.876971 C40.173125,156.017682 35.3225,147.191184 31.09375,144.829163 C27.61125,142.96441 22.63625,138.364686 30.969375,138.240369 C38.805,138.116052 44.401875,145.450748 46.2675,148.434353 C55.2225,163.476695 69.525625,159.249921 75.246875,156.639267 C76.1175,150.174789 78.729375,145.823698 81.59,143.337361 C59.45125,140.851023 36.3175,132.273159 36.3175,94.2321939 C36.3175,83.4166254 40.173125,74.4658102 46.51625,67.504065 C45.52125,65.0177274 42.03875,54.8237434 47.51125,41.1488868 C47.51125,41.1488868 55.844375,38.5382323 74.87375,51.3428708 C82.83375,49.105167 91.29125,47.9863151 99.74875,47.9863151 C108.20625,47.9863151 116.66375,49.105167 124.62375,51.3428708 C143.653125,38.4139154 151.98625,41.1488868 151.98625,41.1488868 C157.45875,54.8237434 153.97625,65.0177274 152.98125,67.504065 C159.324375,74.4658102 163.18,83.2923086 163.18,94.2321939 C163.18,132.397476 139.921875,140.851023 117.783125,143.337361 C121.39,146.445283 124.499375,152.412493 124.499375,161.736259 C124.499375,175.038165 124.375,185.729416 124.375,189.085972 C124.375,191.696627 126.240625,194.804549 131.215625,193.810014 C170.518125,180.632424 199,143.337361 199,99.4535028 C199,44.5054425 154.47375,0 99.5,0 Z" id="Path"></path>
            </g>
        </g>
    </g>
</svg>