<?xml version="1.0" encoding="UTF-8"?>
<svg width="154px" height="154px" viewBox="0 0 154 154" version="1.1" xmlns="http://www.w3.org/2000/svg" xmlns:xlink="http://www.w3.org/1999/xlink">
    <title>8665230_earth_americas_icon</title>
    <g id="Page-1" stroke="none" stroke-width="1" fill="none" fill-rule="evenodd">
        <g id="Artboard" transform="translate(-355.000000, -177.000000)" fill="#FFFFFF" fill-rule="nonzero">
            <g id="8665230_earth_americas_icon" transform="translate(355.000000, 177.000000)">
                <path d="M77,0 C34.4695312,0 0,34.4695312 0,77 C0,119.530469 34.4695312,154 77,154 C119.530469,154 154,119.530469 154,77 C154,34.4695313 119.530469,0 77,0 Z M132.915234,85.18125 L126.749219,82.1433594 C125.457965,81.5899219 124.355902,80.6722383 123.578984,79.5028008 L118.164922,71.381707 C116.549426,68.9571094 116.549426,65.799207 118.164922,63.3749102 L124.057227,54.537957 C124.755039,53.4927422 125.713328,52.6481484 126.836445,52.0865898 C128.898,51.0573164 131.11957,50.4434219 133.384453,50.0716562 C137.306641,58.23125 139.5625,67.3449219 139.5625,77 C139.5625,80.7988672 139.167273,84.5014844 138.51518,88.116875 L132.915234,85.18125 Z M52.7871094,19.3251953 L55.6093398,22.012375 C57.0368477,23.3719063 58.6592617,24.5109648 60.4218398,25.3931563 C61.4796875,25.9303516 62.7429687,26.0476563 63.8859375,25.7137891 C65.9914062,25.0791406 67.4050781,23.1391016 67.375,20.9524219 C67.3773461,19.0385508 68.8271719,17.4362891 70.7317187,17.2437891 C71.4923945,17.1627285 72.2509648,17.0992637 73.0116406,17.0481609 C74.080918,16.9800039 75.1270352,17.3760125 75.8838008,18.1336805 L83.2228633,25.472743 C83.2234648,25.4733445 83.2222617,25.472743 83.2228633,25.472743 C85.101543,27.3526258 85.1021445,30.3995398 83.2222617,32.2794227 L78.7045273,36.8001648 C77.7657891,37.7395047 77.7657891,39.2623602 78.7045273,40.2020008 L80.1148906,41.6123641 C81.0542305,42.5517039 81.0542305,44.0745594 80.1148906,45.0142 L77.7086406,47.42045 C77.2707031,47.884375 76.6390625,48.125 76.0074219,48.125 L73.3003906,48.125 C72.66875,48.125 72.0671875,48.3957031 71.6160156,48.8167969 L68.6382812,51.734375 C67.8863281,52.45625 67.7058594,53.5992187 68.1570313,54.5316406 L72.8462109,63.9130078 C73.0296875,64.246875 73.1199219,64.6078125 73.1199219,64.9988281 C73.1205234,66.3282813 72.0437266,67.4056797 70.714875,67.4068828 L68.9992187,67.4068828 C68.4181094,67.4027621 67.858957,67.1889367 67.423125,66.8053203 L64.6378906,64.3671875 C63.3520508,63.2509883 61.5729297,62.8978711 59.9577344,63.4377734 L50.5823828,66.5628906 C49.7083125,66.8672813 48.9840313,67.4953125 48.5596289,68.31825 C47.6461563,70.0901523 48.3416828,72.2675078 50.1128633,73.178875 L53.4455195,74.8455039 C56.2761719,76.2480469 59.4042969,77 62.5625,77 C65.7267188,77 69.3571484,85.2083203 72.1875,86.625 L92.2676562,86.625 C94.8200859,86.623827 97.2696484,87.6365273 99.0743359,89.4400117 L103.198047,93.5429688 C104.921223,95.265543 105.887332,97.6035156 105.884032,100.039844 C105.886971,103.766523 104.401172,107.339805 101.757305,109.965625 C100.584258,111.132957 99.3540625,112.356535 98.3554687,113.358438 C97.4585391,114.249051 96.8121602,115.359836 96.4816016,116.579805 C96.0274219,118.282227 95.6484375,120.002695 95.046875,121.653984 L90.8028516,134.175508 C90.2142227,136.610633 88.2314727,138.440586 85.7737891,138.873711 C85.3590117,138.932454 84.9520547,139.012943 84.5348711,139.063474 C84.3780137,139.083446 84.2223594,139.107538 84.0650508,139.126337 C83.8165453,139.156295 83.566957,139.170973 83.316707,139.170973 C79.8276445,139.170973 77.0003008,136.343629 77.0003008,133.12527 L77.0003008,129.194059 C77.5083203,125.3982 74.7050391,118.290739 70.1936211,113.77902 C68.3976562,111.710156 67.1042969,109.24375 67.375,106.717188 L67.375,97.0921875 C67.3844145,93.5910938 65.4869961,90.3637109 62.4241406,88.6703125 C58.1019141,86.2788008 51.9539453,82.9374219 47.7430078,80.8169141 C44.3050781,79.0453125 41.0867187,76.8496094 38.2292969,74.2628906 L37.9886719,74.0523438 C35.9433594,72.1875 34.1085938,70.0820312 32.5445312,67.7960938 C30.3488281,64.5777344 25.3558594,57.1484375 21.8367188,51.9449219 C21.3554688,51.253125 21.1148438,50.4710938 20.7839844,49.7492188 C27.4011719,36.1238281 38.7707031,25.2295313 52.7871094,19.3251953 Z" id="Shape"></path>
            </g>
        </g>
    </g>
</svg>