<?xml version="1.0" encoding="UTF-8"?>
<svg width="200px" height="200px" viewBox="0 0 200 200" version="1.1" xmlns="http://www.w3.org/2000/svg" xmlns:xlink="http://www.w3.org/1999/xlink">
    <title>instagram-logo-fill-svgrepo-com</title>
    <g id="Page-1" stroke="none" stroke-width="1" fill="none" fill-rule="evenodd">
        <g id="Artboard" transform="translate(-460.000000, -179.000000)" fill="#FFFFFF" fill-rule="nonzero">
            <g id="instagram-logo-fill-svgrepo-com" transform="translate(460.000000, 179.000000)">
                <path d="M132,100 C132,117.673112 117.673112,132 100,132 C82.326888,132 68,117.673112 68,100 C68,82.326888 82.326888,68 100,68 C117.664735,68.020208 131.979792,82.3352652 132,100 L132,100 Z M200,56 L200,144 C199.964989,174.913432 174.913432,199.964989 144,200 L56,200 C25.0865675,199.964989 0.0350106414,174.913432 0,144 L0,56 C0.0350106414,25.0865675 25.0865675,0.0350106414 56,0 L144,0 C174.913432,0.0350106414 199.964989,25.0865675 200,56 Z M148,100 C148,73.490332 126.509668,52 100,52 C73.490332,52 52,73.490332 52,100 C52,126.509668 73.490332,148 100,148 C126.497249,147.970043 147.970043,126.497249 148,100 Z M164,48 C164,41.372583 158.627417,36 152,36 C145.372583,36 140,41.372583 140,48 C140,54.627417 145.372583,60 152,60 C158.627417,60 164,54.627417 164,48 Z" id="Shape"></path>
            </g>
        </g>
    </g>
</svg>