<?xml version="1.0" encoding="UTF-8"?>
<svg width="79px" height="79px" viewBox="0 0 79 79" version="1.1" xmlns="http://www.w3.org/2000/svg" xmlns:xlink="http://www.w3.org/1999/xlink">
    <title>reddit-seeklogo.com</title>
    <g id="Page-1" stroke="none" stroke-width="1" fill="none" fill-rule="evenodd">
        <g id="Artboard" transform="translate(-251.000000, -291.000000)" fill="#FFFFFF" fill-rule="nonzero">
            <g id="reddit-seeklogo.com" transform="translate(251.000000, 291.000000)">
                <path d="M39.5,0 C61.3152476,0 79,17.6847524 79,39.5 C79,61.3152476 61.3152476,79 39.5,79 C17.6847524,79 0,61.3152476 0,39.5 C0,17.6847524 17.6847524,0 39.5,0 Z M42.739,15.8 C42.581,15.7654375 42.417075,15.762475 42.2580875,15.7911125 C42.0981125,15.8207375 41.9460375,15.880975 41.8097625,15.9688625 C41.674475,16.05675 41.5569625,16.1713 41.4661125,16.3046125 C41.374275,16.4389125 41.3100875,16.5890125 41.2775,16.748 L38.3545,30.4545 C36.9887875,30.4752375 35.6260375,30.594725 34.2781,30.8129625 C32.9301625,31.0312 31.5990125,31.3462125 30.2965,31.7570125 C28.9939875,32.1678125 27.723075,32.6734125 26.4936375,33.2678875 C25.2644924,33.8632444 24.0800225,34.546732 22.9495,35.313 C21.7169466,34.1535131 20.0373363,33.5938837 18.35565,33.782375 C16.6741553,33.9700483 15.1601011,34.8872192 14.2150625,36.290625 C13.2692073,37.6942405 12.9875856,39.4424613 13.4448125,41.0721 C13.9027938,42.7009919 15.05259,44.0468131 16.59,44.7535 C16.5791375,44.897675 16.57025,45.0428375 16.5653125,45.188 C16.5534257,45.4775447 16.5534257,45.7674553 16.5653125,46.057 C16.57025,46.2021625 16.5791375,46.347325 16.59,46.4915 C16.59,55.3395 26.8995,62.5285 39.6185,62.5285 C52.3375,62.5285 62.647,55.3395 62.647,46.4915 C62.6578625,46.347325 62.66675,46.2021625 62.6716875,46.057 C62.6835743,45.7674553 62.6835743,45.4775447 62.6716875,45.188 C62.66675,45.0428375 62.6578625,44.897675 62.647,44.7535 C63.1318625,44.51255 63.5801875,44.20445 63.9791375,43.8380875 C64.3780875,43.471725 64.7237125,43.05105 65.00515,42.5889 C65.287575,42.12675 65.50285,41.6260875 65.64505,41.1037 C65.78725,40.5813125 65.8544,40.04115 65.8465,39.5 C65.8059716,38.3879525 65.4444897,37.311395 64.805675,36.4002375 C64.1670512,35.4891553 63.2784478,34.7823195 62.2470625,34.365 C61.2157931,33.9474761 60.0857143,33.8373834 58.99325,34.0480125 C57.9007924,34.2578983 56.8924556,34.7795582 56.09,35.55 C54.9739583,34.7913737 53.8046918,34.1141694 52.5912875,33.52365 C50.1618459,32.3399066 47.574244,31.5130713 44.9085375,31.068725 C43.5773875,30.8465375 42.231425,30.7201375 40.8825,30.6915 L43.45,18.3675 L51.903,20.145 C52.110375,22.074575 53.6893875,23.567675 55.62785,23.6674125 C57.565325,23.76715 59.2895,22.4439 59.6933875,20.545925 C60.0982625,18.64795 59.0633625,16.7371375 57.253275,16.0379875 C55.4431875,15.3388375 53.3931375,16.0577375 52.4165,17.7355 Z M30.555225,52.57055 C30.819875,52.5577125 31.0795875,52.643625 31.284,52.8115 C31.87255,53.2430375 32.49665,53.6242125 33.1493875,53.9500875 C33.802125,54.2759625 34.4805375,54.5465375 35.1796875,54.7578625 C35.8776832,54.970189 36.592628,55.1221643 37.3166375,55.2121125 C38.040475,55.3029625 38.771225,55.3325875 39.5,55.3 C40.2297625,55.3395 40.9615,55.317775 41.6883,55.2338375 C42.4141125,55.1499 43.132025,55.0047375 43.83315,54.800325 C44.5348583,54.5952604 45.218001,54.3313189 45.8753,54.0113125 C46.5325595,53.6914737 47.1615419,53.3165289 47.7555,52.8905 C47.9836125,52.7196625 48.2561625,52.61005 48.539575,52.614 C48.822,52.61795 49.0915875,52.7334875 49.2890875,52.935925 C49.4865875,53.1383625 49.5962,53.4109125 49.5923532,53.694325 C49.5883,53.97675 49.4727625,54.2463375 49.270325,54.4438375 L49.296,54.3125 C48.6017875,54.835875 47.864125,55.298025 47.0909125,55.695 C45.5410515,56.48927 43.8662475,57.0113519 42.1395875,57.2384625 C41.2775,57.3510375 40.4075125,57.38955 39.5395,57.354 C38.6714875,57.38955 37.8015,57.3510375 36.9394125,57.2384625 C36.077325,57.1249 35.2270875,56.9382625 34.3975875,56.6795375 C33.5680875,56.4208125 32.7613,56.091975 31.9880875,55.695 C31.214875,55.298025 30.4772125,54.835875 29.783,54.3125 C29.615125,54.1080875 29.5292125,53.848375 29.54205,53.583725 C29.5548875,53.319075 29.666475,53.0692375 29.8531125,52.8816125 C30.0407375,52.694975 30.290575,52.5833875 30.555225,52.57055 Z M45.79235,40.81535 C46.92205,39.68565 48.62055,39.3469375 50.0968625,39.9582 C51.5721875,40.57045 52.535,42.010225 52.535,43.608 C52.5566732,44.1431296 52.4689733,44.6770571 52.2772625,45.1771375 C52.0856875,45.6778 51.7953625,46.134025 51.4220875,46.5181625 C51.0488125,46.9023 50.601475,47.20645 50.1067375,47.4128375 C49.612,47.6182375 49.080725,47.721925 48.5455,47.716 L48.585,47.558 C46.987225,47.558 45.54745,46.5951875 44.9352,45.1198625 C44.3239375,43.64355 44.66265,41.94505 45.79235,40.81535 Z M28.7846375,39.8002 C30.26095,39.1889375 31.95945,39.52765 33.08915,40.65735 C34.21885,41.78705 34.5575625,43.48555 33.9463,44.9618625 C33.33405,46.4371875 31.894275,47.4 30.2965,47.4 C29.7777344,47.4 29.2640252,47.2980555 28.7846375,47.0998 C28.3057,46.900325 27.8702125,46.61 27.50385,46.24265 C27.1365,45.8762875 26.846175,45.4408 26.6467,44.9618625 C26.4482125,44.4819375 26.3465,43.9684375 26.3465,43.45 C26.3465,41.852225 27.3093125,40.41245 28.7846375,39.8002 Z" id="Combined-Shape"></path>
            </g>
        </g>
    </g>
</svg>