<?xml version="1.0" encoding="UTF-8"?>
<svg width="216px" height="216px" viewBox="0 0 216 216" version="1.1" xmlns="http://www.w3.org/2000/svg" xmlns:xlink="http://www.w3.org/1999/xlink">
    <!-- Generator: Sketch 62 (91390) - https://sketch.com -->
    <title>z</title>
    <desc>Created with Sketch.</desc>
    <g id="Page-1" stroke="none" stroke-width="1" fill="none" fill-rule="evenodd">
        <g id="Desktop-HD-Copy" transform="translate(-262.000000, -1288.000000)">
            <g id="z" transform="translate(262.000000, 1288.000000)">
                <g id="cube" fill="#64707F" fill-opacity="0.497268357">
                    <rect id="Rectangle" x="27" y="27" width="50" height="50" rx="7"></rect>
                    <rect id="Rectangle" x="83" y="27" width="50" height="50" rx="7"></rect>
                    <rect id="Rectangle" x="27" y="83" width="50" height="50" rx="7"></rect>
                    <rect id="Rectangle" x="83" y="83" width="50" height="50" rx="7"></rect>
                    <rect id="Rectangle" x="139" y="83" width="50" height="50" rx="7"></rect>
                    <rect id="Rectangle" x="27" y="139" width="50" height="50" rx="7"></rect>
                    <rect id="Rectangle" x="83" y="139" width="50" height="50" rx="7"></rect>
                    <rect id="Rectangle" x="139" y="139" width="50" height="50" rx="7"></rect>
                    <rect id="Rectangle" x="27" y="0" width="50" height="21" rx="10.5"></rect>
                    <rect id="Rectangle" x="83" y="0" width="50" height="21" rx="10.5"></rect>
                    <rect id="Rectangle" x="139" y="0" width="50" height="21" rx="10.5"></rect>
                    <rect id="Rectangle" x="195" y="27" width="21" height="50" rx="10.5"></rect>
                    <rect id="Rectangle" x="195" y="83" width="21" height="50" rx="10.5"></rect>
                    <rect id="Rectangle" x="195" y="139" width="21" height="50" rx="10.5"></rect>
                    <rect id="Rectangle" x="0" y="27" width="21" height="50" rx="10.5"></rect>
                    <rect id="Rectangle" x="0" y="83" width="21" height="50" rx="10.5"></rect>
                    <rect id="Rectangle" x="0" y="139" width="21" height="50" rx="10.5"></rect>
                    <rect id="Rectangle" x="27" y="195" width="50" height="21" rx="10.5"></rect>
                    <rect id="Rectangle" x="83" y="195" width="50" height="21" rx="10.5"></rect>
                    <rect id="Rectangle" x="139" y="195" width="50" height="21" rx="10.5"></rect>
                    <rect id="Rectangle" x="139" y="27" width="50" height="50" rx="7"></rect>
                </g>
                <path d="M93.3424544,127.314649 C93.929617,126.140324 95.3575851,125.664334 96.5319103,126.251497 L96.5319103,126.251497 L113.800311,134.885697 C114.26038,135.115732 114.633428,135.48878 114.863463,135.948849 C115.450625,137.123174 114.974636,138.551142 113.800311,139.138305 L113.800311,139.138305 L96.5319103,147.772505 C96.201812,147.937554 95.8378194,148.023481 95.4687583,148.023481 C94.1558228,148.023481 93.0914783,146.959137 93.0914783,145.646201 L93.0914783,145.646201 L93.091,139.983 L68.023,139.983 L68.0234814,145.646201 C68.0234814,146.959137 66.9591369,148.023481 65.6462014,148.023481 C65.2771403,148.023481 64.9131477,147.937554 64.5830494,147.772505 L47.3146488,139.138305 C46.1403236,138.551142 45.6643343,137.123174 46.2514969,135.948849 C46.4815313,135.48878 46.85458,135.115732 47.3146488,134.885697 L64.5830494,126.251497 C65.7573747,125.664334 67.1853427,126.140324 67.7725053,127.314649 C67.9375544,127.644747 68.0234814,128.00874 68.0234814,128.377801 L68.023,134.04 L93.091,134.04 L93.0914783,128.377801 C93.0914783,128.082552 93.1464716,127.790547 93.252974,127.516545 Z" id="Combined-Shape" fill="#246BFD" transform="translate(80.557480, 137.011741) rotate(45.000000) translate(-80.557480, -137.011741) "></path>
                <path d="M149.342454,70.3146488 C149.929617,69.1403236 151.357585,68.6643343 152.53191,69.2514969 L152.53191,69.2514969 L169.800311,77.8856972 C170.26038,78.1157316 170.633428,78.4887803 170.863463,78.9488491 C171.450625,80.1231744 170.974636,81.5511424 169.800311,82.138305 L169.800311,82.138305 L152.53191,90.7725053 C152.201812,90.9375544 151.837819,91.0234814 151.468758,91.0234814 C150.155823,91.0234814 149.091478,89.9591369 149.091478,88.6462014 L149.091478,88.6462014 L149.091,82.983 L124.023,82.983 L124.023481,88.6462014 C124.023481,89.9591369 122.959137,91.0234814 121.646201,91.0234814 C121.27714,91.0234814 120.913148,90.9375544 120.583049,90.7725053 L103.314649,82.138305 C102.140324,81.5511424 101.664334,80.1231744 102.251497,78.9488491 C102.481531,78.4887803 102.85458,78.1157316 103.314649,77.8856972 L120.583049,69.2514969 C121.757375,68.6643343 123.185343,69.1403236 123.772505,70.3146488 C123.937554,70.6447471 124.023481,71.0087397 124.023481,71.3778008 L124.023,77.04 L149.091,77.04 L149.091478,71.3778008 C149.091478,71.0825519 149.146472,70.7905469 149.252974,70.5165445 Z" id="Combined-Shape" fill="#246BFD" transform="translate(136.557480, 80.011741) rotate(45.000000) translate(-136.557480, -80.011741) "></path>
            </g>
        </g>
    </g>
</svg>