<?xml version="1.0" encoding="UTF-8"?>
<svg width="216px" height="216px" viewBox="0 0 216 216" version="1.1" xmlns="http://www.w3.org/2000/svg" xmlns:xlink="http://www.w3.org/1999/xlink">
    <!-- Generator: Sketch 62 (91390) - https://sketch.com -->
    <title>h</title>
    <desc>Created with Sketch.</desc>
    <g id="Page-1" stroke="none" stroke-width="1" fill="none" fill-rule="evenodd">
        <g id="Desktop-HD-Copy" transform="translate(-1060.000000, -1288.000000)">
            <g id="h" transform="translate(1060.000000, 1288.000000)">
                <g id="cube" fill="#64707F" fill-opacity="0.497268357">
                    <rect id="Rectangle" x="27" y="27" width="50" height="50" rx="7"></rect>
                    <rect id="Rectangle" x="83" y="27" width="50" height="50" rx="7"></rect>
                    <rect id="Rectangle" x="27" y="83" width="50" height="50" rx="7"></rect>
                    <rect id="Rectangle" x="83" y="83" width="50" height="50" rx="7"></rect>
                    <rect id="Rectangle" x="139" y="83" width="50" height="50" rx="7"></rect>
                    <rect id="Rectangle" x="27" y="139" width="50" height="50" rx="7"></rect>
                    <rect id="Rectangle" x="83" y="139" width="50" height="50" rx="7"></rect>
                    <rect id="Rectangle" x="139" y="139" width="50" height="50" rx="7"></rect>
                    <rect id="Rectangle" x="27" y="0" width="50" height="21" rx="10.5"></rect>
                    <rect id="Rectangle" x="83" y="0" width="50" height="21" rx="10.5"></rect>
                    <rect id="Rectangle" x="139" y="0" width="50" height="21" rx="10.5"></rect>
                    <rect id="Rectangle" x="195" y="27" width="21" height="50" rx="10.5"></rect>
                    <rect id="Rectangle" x="195" y="83" width="21" height="50" rx="10.5"></rect>
                    <rect id="Rectangle" x="195" y="139" width="21" height="50" rx="10.5"></rect>
                    <rect id="Rectangle" x="0" y="27" width="21" height="50" rx="10.5"></rect>
                    <rect id="Rectangle" x="0" y="83" width="21" height="50" rx="10.5"></rect>
                    <rect id="Rectangle" x="0" y="139" width="21" height="50" rx="10.5"></rect>
                    <rect id="Rectangle" x="27" y="195" width="50" height="21" rx="10.5"></rect>
                    <rect id="Rectangle" x="83" y="195" width="50" height="21" rx="10.5"></rect>
                    <rect id="Rectangle" x="139" y="195" width="50" height="21" rx="10.5"></rect>
                    <rect id="Rectangle" x="139" y="27" width="50" height="50" rx="7"></rect>
                </g>
                <path d="M146.313017,98.3146488 C146.90018,97.1403236 148.328148,96.6643343 149.502473,97.2514969 L149.502473,97.2514969 L166.770874,105.885697 C167.230942,106.115732 167.603991,106.48878 167.834026,106.948849 C168.421188,108.123174 167.945199,109.551142 166.770874,110.138305 L166.770874,110.138305 L149.502473,118.772505 C149.172375,118.937554 148.808382,119.023481 148.439321,119.023481 C147.126386,119.023481 146.062041,117.959137 146.062041,116.646201 L146.062041,116.646201 L146.062,110.983 L69.023,110.983 L69.0234814,116.646201 C69.0234814,117.959137 67.9591369,119.023481 66.6462014,119.023481 C66.2771403,119.023481 65.9131477,118.937554 65.5830494,118.772505 L48.3146488,110.138305 C47.1403236,109.551142 46.6643343,108.123174 47.2514969,106.948849 C47.4815313,106.48878 47.85458,106.115732 48.3146488,105.885697 L65.5830494,97.2514969 C66.7573747,96.6643343 68.1853427,97.1403236 68.7725053,98.3146488 C68.9375544,98.6447471 69.0234814,99.0087397 69.0234814,99.3778008 L69.023,105.04 L146.062,105.04 L146.062041,99.3778008 C146.062041,99.0825519 146.117034,98.7905469 146.223537,98.5165445 Z" id="Combined-Shape" fill="#246BFD" transform="translate(107.542761, 108.011741) rotate(90.000000) translate(-107.542761, -108.011741) "></path>
                <path d="M146.313017,98.3146488 C146.90018,97.1403236 148.328148,96.6643343 149.502473,97.2514969 L149.502473,97.2514969 L166.770874,105.885697 C167.230942,106.115732 167.603991,106.48878 167.834026,106.948849 C168.421188,108.123174 167.945199,109.551142 166.770874,110.138305 L166.770874,110.138305 L149.502473,118.772505 C149.172375,118.937554 148.808382,119.023481 148.439321,119.023481 C147.126386,119.023481 146.062041,117.959137 146.062041,116.646201 L146.062041,116.646201 L146.062,110.983 L69.023,110.983 L69.0234814,116.646201 C69.0234814,117.959137 67.9591369,119.023481 66.6462014,119.023481 C66.2771403,119.023481 65.9131477,118.937554 65.5830494,118.772505 L48.3146488,110.138305 C47.1403236,109.551142 46.6643343,108.123174 47.2514969,106.948849 C47.4815313,106.48878 47.85458,106.115732 48.3146488,105.885697 L65.5830494,97.2514969 C66.7573747,96.6643343 68.1853427,97.1403236 68.7725053,98.3146488 C68.9375544,98.6447471 69.0234814,99.0087397 69.0234814,99.3778008 L69.023,105.04 L146.062,105.04 L146.062041,99.3778008 C146.062041,99.0825519 146.117034,98.7905469 146.223537,98.5165445 Z" id="Combined-Shape" fill="#246BFD"></path>
            </g>
        </g>
    </g>
</svg>