<?xml version="1.0" encoding="UTF-8"?>
<svg width="216px" height="216px" viewBox="0 0 216 216" version="1.1" xmlns="http://www.w3.org/2000/svg" xmlns:xlink="http://www.w3.org/1999/xlink">
    <!-- Generator: Sketch 62 (91390) - https://sketch.com -->
    <title>ub</title>
    <desc>Created with Sketch.</desc>
    <g id="Page-1" stroke="none" stroke-width="1" fill="none" fill-rule="evenodd">
        <g id="Desktop-HD-Copy" transform="translate(-528.000000, -1288.000000)">
            <g id="ub" transform="translate(528.000000, 1288.000000)">
                <g id="cube" fill="#64707F" fill-opacity="0.497268357">
                    <rect id="Rectangle" x="27" y="27" width="50" height="50" rx="7"></rect>
                    <rect id="Rectangle" x="83" y="27" width="50" height="50" rx="7"></rect>
                    <rect id="Rectangle" x="27" y="83" width="50" height="50" rx="7"></rect>
                    <rect id="Rectangle" x="83" y="83" width="50" height="50" rx="7"></rect>
                    <rect id="Rectangle" x="139" y="83" width="50" height="50" rx="7"></rect>
                    <rect id="Rectangle" x="27" y="139" width="50" height="50" rx="7"></rect>
                    <rect id="Rectangle" x="83" y="139" width="50" height="50" rx="7"></rect>
                    <rect id="Rectangle" x="139" y="139" width="50" height="50" rx="7"></rect>
                    <rect id="Rectangle" x="27" y="0" width="50" height="21" rx="10.5"></rect>
                    <rect id="Rectangle" x="83" y="0" width="50" height="21" rx="10.5"></rect>
                    <rect id="Rectangle" x="139" y="0" width="50" height="21" rx="10.5"></rect>
                    <rect id="Rectangle" x="195" y="27" width="21" height="50" rx="10.5"></rect>
                    <rect id="Rectangle" x="195" y="83" width="21" height="50" rx="10.5"></rect>
                    <rect id="Rectangle" x="195" y="139" width="21" height="50" rx="10.5"></rect>
                    <rect id="Rectangle" x="0" y="27" width="21" height="50" rx="10.5"></rect>
                    <rect id="Rectangle" x="0" y="83" width="21" height="50" rx="10.5"></rect>
                    <rect id="Rectangle" x="0" y="139" width="21" height="50" rx="10.5"></rect>
                    <rect id="Rectangle" x="27" y="195" width="50" height="21" rx="10.5"></rect>
                    <rect id="Rectangle" x="83" y="195" width="50" height="21" rx="10.5"></rect>
                    <rect id="Rectangle" x="139" y="195" width="50" height="21" rx="10.5"></rect>
                    <rect id="Rectangle" x="139" y="27" width="50" height="50" rx="7"></rect>
                </g>
                <path d="M89.9339407,131.129315 C90.5211034,129.95499 91.9490714,129.479001 93.1233966,130.066163 L93.1233966,130.066163 L110.391797,138.700364 C110.851866,138.930398 111.224915,139.303447 111.454949,139.763515 C112.042112,140.937841 111.566122,142.365809 110.391797,142.952971 L110.391797,142.952971 L93.1233966,151.587172 C92.7932984,151.752221 92.4293057,151.838148 92.0602447,151.838148 C90.7473091,151.838148 89.6829646,150.773803 89.6829646,149.460868 L89.6829646,149.460868 L89.6828464,143.797666 L60.2264864,143.798267 C59.5700186,143.798267 59.0378464,143.266095 59.0378464,142.609627 L59.0378464,139.043707 C59.0378464,138.38724 59.5700186,137.855067 60.2264864,137.855067 L89.6828464,137.854666 L89.6829646,132.192467 C89.6829646,131.897218 89.7379579,131.605213 89.8444604,131.331211 Z" id="Combined-Shape" fill="#246BFD" transform="translate(85.372146, 140.826407) scale(-1, -1) rotate(45.000000) translate(-85.372146, -140.826407) "></path>
                <path d="M137.896094,130.314649 C138.483257,129.140324 139.911225,128.664334 141.08555,129.251497 L141.08555,129.251497 L158.353951,137.885697 C158.81402,138.115732 159.187068,138.48878 159.417103,138.948849 C160.004265,140.123174 159.528276,141.551142 158.353951,142.138305 L158.353951,142.138305 L141.08555,150.772505 C140.755452,150.937554 140.391459,151.023481 140.022398,151.023481 C138.709463,151.023481 137.645118,149.959137 137.645118,148.646201 L137.645118,148.646201 L137.645,142.983 L108.18864,142.983601 C107.532172,142.983601 107,142.451429 107,141.794961 L107,138.229041 C107,137.572573 107.532172,137.040401 108.18864,137.040401 L137.645,137.04 L137.645118,131.377801 C137.645118,131.082552 137.700112,130.790547 137.806614,130.516545 Z" id="Combined-Shape" fill="#246BFD" transform="translate(133.334300, 140.011741) scale(-1, 1) rotate(45.000000) translate(-133.334300, -140.011741) "></path>
                <g id="Group" transform="translate(108.500000, 108.500000) scale(-1, 1) translate(-108.500000, -108.500000) translate(55.000000, 97.000000)" fill="#246BFD">
                    <path d="M22.3331842,1.59472793 C22.4982334,1.92482618 22.5841604,2.28881882 22.5841604,2.65787988 L22.5836789,8.32007909 L105.788962,8.32048013 C106.445429,8.32048013 106.977602,8.8526524 106.977602,9.50912015 L106.977602,13.0750402 C106.977602,13.731508 106.445429,14.2636802 105.788962,14.2636802 L22.5836789,14.2630791 L22.5841604,19.9262805 C22.5841604,21.239216 21.5198158,22.3035605 20.2068803,22.3035605 C19.8378193,22.3035605 19.4738266,22.2176335 19.1437284,22.0525844 L1.87532778,13.4183841 C0.701002554,12.8312215 0.225013211,11.4032534 0.812175822,10.2289282 C1.04221024,9.7688594 1.41525895,9.39581069 1.87532778,9.16577628 L19.1437284,0.531575977 C20.3180536,-0.0555866339 21.7460216,0.420402709 22.3331842,1.59472793 Z" id="Combined-Shape"></path>
                </g>
            </g>
        </g>
    </g>
</svg>