<?xml version="1.0" encoding="UTF-8"?>
<svg width="216px" height="216px" viewBox="0 0 216 216" version="1.1" xmlns="http://www.w3.org/2000/svg" xmlns:xlink="http://www.w3.org/1999/xlink">
    <!-- Generator: Sketch 62 (91390) - https://sketch.com -->
    <title>t</title>
    <desc>Created with Sketch.</desc>
    <g id="Page-1" stroke="none" stroke-width="1" fill="none" fill-rule="evenodd">
        <g id="Desktop-HD-Copy" transform="translate(-262.000000, -756.000000)">
            <g id="t" transform="translate(262.000000, 756.000000)">
                <g id="cube" fill="#64707F" fill-opacity="0.497268357">
                    <rect id="Rectangle" x="27" y="27" width="50" height="50" rx="7"></rect>
                    <rect id="Rectangle" x="83" y="27" width="50" height="50" rx="7"></rect>
                    <rect id="Rectangle" x="27" y="83" width="50" height="50" rx="7"></rect>
                    <rect id="Rectangle" x="83" y="83" width="50" height="50" rx="7"></rect>
                    <rect id="Rectangle" x="139" y="83" width="50" height="50" rx="7"></rect>
                    <rect id="Rectangle" x="27" y="139" width="50" height="50" rx="7"></rect>
                    <rect id="Rectangle" x="83" y="139" width="50" height="50" rx="7"></rect>
                    <rect id="Rectangle" x="139" y="139" width="50" height="50" rx="7"></rect>
                    <rect id="Rectangle" x="27" y="0" width="50" height="21" rx="10.5"></rect>
                    <rect id="Rectangle" x="83" y="0" width="50" height="21" rx="10.5"></rect>
                    <rect id="Rectangle" x="139" y="0" width="50" height="21" rx="10.5"></rect>
                    <rect id="Rectangle" x="195" y="27" width="21" height="50" rx="10.5"></rect>
                    <rect id="Rectangle" x="195" y="83" width="21" height="50" rx="10.5"></rect>
                    <rect id="Rectangle" x="195" y="139" width="21" height="50" rx="10.5"></rect>
                    <rect id="Rectangle" x="0" y="27" width="21" height="50" rx="10.5"></rect>
                    <rect id="Rectangle" x="0" y="83" width="21" height="50" rx="10.5"></rect>
                    <rect id="Rectangle" x="0" y="139" width="21" height="50" rx="10.5"></rect>
                    <rect id="Rectangle" x="27" y="195" width="50" height="21" rx="10.5"></rect>
                    <rect id="Rectangle" x="83" y="195" width="50" height="21" rx="10.5"></rect>
                    <rect id="Rectangle" x="139" y="195" width="50" height="21" rx="10.5"></rect>
                    <rect id="Rectangle" x="139" y="27" width="50" height="50" rx="7"></rect>
                </g>
                <path d="M202.313017,100.314649 C202.90018,99.1403236 204.328148,98.6643343 205.502473,99.2514969 L205.502473,99.2514969 L222.770874,107.885697 C223.230942,108.115732 223.603991,108.48878 223.834026,108.948849 C224.421188,110.123174 223.945199,111.551142 222.770874,112.138305 L222.770874,112.138305 L205.502473,120.772505 C205.172375,120.937554 204.808382,121.023481 204.439321,121.023481 C203.126386,121.023481 202.062041,119.959137 202.062041,118.646201 L202.062041,118.646201 L202.062,112.983 L125.023,112.983 L125.023481,118.646201 C125.023481,119.959137 123.959137,121.023481 122.646201,121.023481 C122.27714,121.023481 121.913148,120.937554 121.583049,120.772505 L104.314649,112.138305 C103.140324,111.551142 102.664334,110.123174 103.251497,108.948849 C103.481531,108.48878 103.85458,108.115732 104.314649,107.885697 L121.583049,99.2514969 C122.757375,98.6643343 124.185343,99.1403236 124.772505,100.314649 C124.937554,100.644747 125.023481,101.00874 125.023481,101.377801 L125.023,107.04 L202.062,107.04 L202.062041,101.377801 C202.062041,101.082552 202.117034,100.790547 202.223537,100.516545 Z" id="Combined-Shape" fill="#246BFD" transform="translate(163.542761, 110.011741) rotate(90.000000) translate(-163.542761, -110.011741) "></path>
                <path d="M146.313017,98.3146488 C146.90018,97.1403236 148.328148,96.6643343 149.502473,97.2514969 L149.502473,97.2514969 L166.770874,105.885697 C167.230942,106.115732 167.603991,106.48878 167.834026,106.948849 C168.421188,108.123174 167.945199,109.551142 166.770874,110.138305 L166.770874,110.138305 L149.502473,118.772505 C149.172375,118.937554 148.808382,119.023481 148.439321,119.023481 C147.126386,119.023481 146.062041,117.959137 146.062041,116.646201 L146.062041,116.646201 L146.062,110.983 L69.023,110.983 L69.0234814,116.646201 C69.0234814,117.959137 67.9591369,119.023481 66.6462014,119.023481 C66.2771403,119.023481 65.9131477,118.937554 65.5830494,118.772505 L48.3146488,110.138305 C47.1403236,109.551142 46.6643343,108.123174 47.2514969,106.948849 C47.4815313,106.48878 47.85458,106.115732 48.3146488,105.885697 L65.5830494,97.2514969 C66.7573747,96.6643343 68.1853427,97.1403236 68.7725053,98.3146488 C68.9375544,98.6447471 69.0234814,99.0087397 69.0234814,99.3778008 L69.023,105.04 L146.062,105.04 L146.062041,99.3778008 C146.062041,99.0825519 146.117034,98.7905469 146.223537,98.5165445 Z" id="Combined-Shape" fill="#246BFD"></path>
            </g>
        </g>
    </g>
</svg>