<?xml version="1.0" encoding="UTF-8"?>
<svg width="216px" height="216px" viewBox="0 0 216 216" version="1.1" xmlns="http://www.w3.org/2000/svg" xmlns:xlink="http://www.w3.org/1999/xlink">
    <!-- Generator: Sketch 62 (91390) - https://sketch.com -->
    <title>f</title>
    <desc>Created with Sketch.</desc>
    <g id="Page-1" stroke="none" stroke-width="1" fill="none" fill-rule="evenodd">
        <g id="Desktop-HD-Copy" transform="translate(-794.000000, -490.000000)">
            <g id="f" transform="translate(794.000000, 490.000000)">
                <g id="cube" fill="#64707F" fill-opacity="0.497268357">
                    <rect id="Rectangle" x="27" y="27" width="50" height="50" rx="7"></rect>
                    <rect id="Rectangle" x="83" y="27" width="50" height="50" rx="7"></rect>
                    <rect id="Rectangle" x="27" y="83" width="50" height="50" rx="7"></rect>
                    <rect id="Rectangle" x="83" y="83" width="50" height="50" rx="7"></rect>
                    <rect id="Rectangle" x="139" y="83" width="50" height="50" rx="7"></rect>
                    <rect id="Rectangle" x="27" y="139" width="50" height="50" rx="7"></rect>
                    <rect id="Rectangle" x="83" y="139" width="50" height="50" rx="7"></rect>
                    <rect id="Rectangle" x="139" y="139" width="50" height="50" rx="7"></rect>
                    <rect id="Rectangle" x="27" y="0" width="50" height="21" rx="10.5"></rect>
                    <rect id="Rectangle" x="83" y="0" width="50" height="21" rx="10.5"></rect>
                    <rect id="Rectangle" x="139" y="0" width="50" height="21" rx="10.5"></rect>
                    <rect id="Rectangle" x="195" y="27" width="21" height="50" rx="10.5"></rect>
                    <rect id="Rectangle" x="195" y="83" width="21" height="50" rx="10.5"></rect>
                    <rect id="Rectangle" x="195" y="139" width="21" height="50" rx="10.5"></rect>
                    <rect id="Rectangle" x="0" y="27" width="21" height="50" rx="10.5"></rect>
                    <rect id="Rectangle" x="0" y="83" width="21" height="50" rx="10.5"></rect>
                    <rect id="Rectangle" x="0" y="139" width="21" height="50" rx="10.5"></rect>
                    <rect id="Rectangle" x="27" y="195" width="50" height="21" rx="10.5"></rect>
                    <rect id="Rectangle" x="83" y="195" width="50" height="21" rx="10.5"></rect>
                    <rect id="Rectangle" x="139" y="195" width="50" height="21" rx="10.5"></rect>
                    <rect id="Rectangle" x="139" y="27" width="50" height="50" rx="7"></rect>
                </g>
                <g id="Group" transform="translate(108.000000, 108.500000) rotate(90.000000) translate(-108.000000, -108.500000) translate(47.000000, 97.000000)" fill="#246BFD">
                    <path d="M99.3130172,1.31464884 C99.9001798,0.140323622 101.328148,-0.33566572 102.502473,0.25149689 L102.502473,0.25149689 L119.770874,8.88569719 C120.230942,9.1157316 120.603991,9.48878031 120.834026,9.94884914 C121.421188,11.1231744 120.945199,12.5511424 119.770874,13.138305 L119.770874,13.138305 L102.502473,21.7725053 C102.172375,21.9375544 101.808382,22.0234814 101.439321,22.0234814 C100.126386,22.0234814 99.062041,20.9591369 99.062041,19.6462014 L99.062041,19.6462014 L99.062,13.983 L22.023,13.983 L22.0234814,19.6462014 C22.0234814,20.9591369 20.9591369,22.0234814 19.6462014,22.0234814 C19.2771403,22.0234814 18.9131477,21.9375544 18.5830494,21.7725053 L1.31464884,13.138305 C0.140323622,12.5511424 -0.33566572,11.1231744 0.25149689,9.94884914 C0.481531305,9.48878031 0.854580013,9.1157316 1.31464884,8.88569719 L18.5830494,0.25149689 C19.7573747,-0.33566572 21.1853427,0.140323622 21.7725053,1.31464884 C21.9375544,1.6447471 22.0234814,2.00873973 22.0234814,2.3778008 L22.023,8.04 L99.062,8.04 L99.062041,2.3778008 C99.062041,2.08255194 99.1170343,1.79054689 99.2235368,1.51654451 Z" id="Combined-Shape"></path>
                </g>
                <g id="Group" transform="translate(164.000000, 108.500000) rotate(90.000000) translate(-164.000000, -108.500000) translate(103.000000, 97.000000)" fill="#246BFD">
                    <path d="M99.3130172,1.31464884 C99.9001798,0.140323622 101.328148,-0.33566572 102.502473,0.25149689 L102.502473,0.25149689 L119.770874,8.88569719 C120.230942,9.1157316 120.603991,9.48878031 120.834026,9.94884914 C121.421188,11.1231744 120.945199,12.5511424 119.770874,13.138305 L119.770874,13.138305 L102.502473,21.7725053 C102.172375,21.9375544 101.808382,22.0234814 101.439321,22.0234814 C100.126386,22.0234814 99.062041,20.9591369 99.062041,19.6462014 L99.062041,19.6462014 L99.062,13.983 L22.023,13.983 L22.0234814,19.6462014 C22.0234814,20.9591369 20.9591369,22.0234814 19.6462014,22.0234814 C19.2771403,22.0234814 18.9131477,21.9375544 18.5830494,21.7725053 L1.31464884,13.138305 C0.140323622,12.5511424 -0.33566572,11.1231744 0.25149689,9.94884914 C0.481531305,9.48878031 0.854580013,9.1157316 1.31464884,8.88569719 L18.5830494,0.25149689 C19.7573747,-0.33566572 21.1853427,0.140323622 21.7725053,1.31464884 C21.9375544,1.6447471 22.0234814,2.00873973 22.0234814,2.3778008 L22.023,8.04 L99.062,8.04 L99.062041,2.3778008 C99.062041,2.08255194 99.1170343,1.79054689 99.2235368,1.51654451 Z" id="Combined-Shape"></path>
                </g>
            </g>
        </g>
    </g>
</svg>