<?xml version="1.0" encoding="UTF-8"?>
<svg width="216px" height="216px" viewBox="0 0 216 216" version="1.1" xmlns="http://www.w3.org/2000/svg" xmlns:xlink="http://www.w3.org/1999/xlink">
    <!-- Generator: Sketch 62 (91390) - https://sketch.com -->
    <title>rb</title>
    <desc>Created with Sketch.</desc>
    <g id="Page-1" stroke="none" stroke-width="1" fill="none" fill-rule="evenodd">
        <g id="Desktop-HD-Copy" transform="translate(-528.000000, -756.000000)">
            <g id="rb" transform="translate(528.000000, 756.000000)">
                <g id="cube" fill="#64707F" fill-opacity="0.497268357">
                    <rect id="Rectangle" x="27" y="27" width="50" height="50" rx="7"></rect>
                    <rect id="Rectangle" x="83" y="27" width="50" height="50" rx="7"></rect>
                    <rect id="Rectangle" x="27" y="83" width="50" height="50" rx="7"></rect>
                    <rect id="Rectangle" x="83" y="83" width="50" height="50" rx="7"></rect>
                    <rect id="Rectangle" x="139" y="83" width="50" height="50" rx="7"></rect>
                    <rect id="Rectangle" x="27" y="139" width="50" height="50" rx="7"></rect>
                    <rect id="Rectangle" x="83" y="139" width="50" height="50" rx="7"></rect>
                    <rect id="Rectangle" x="139" y="139" width="50" height="50" rx="7"></rect>
                    <rect id="Rectangle" x="27" y="0" width="50" height="21" rx="10.5"></rect>
                    <rect id="Rectangle" x="83" y="0" width="50" height="21" rx="10.5"></rect>
                    <rect id="Rectangle" x="139" y="0" width="50" height="21" rx="10.5"></rect>
                    <rect id="Rectangle" x="195" y="27" width="21" height="50" rx="10.5"></rect>
                    <rect id="Rectangle" x="195" y="83" width="21" height="50" rx="10.5"></rect>
                    <rect id="Rectangle" x="195" y="139" width="21" height="50" rx="10.5"></rect>
                    <rect id="Rectangle" x="0" y="27" width="21" height="50" rx="10.5"></rect>
                    <rect id="Rectangle" x="0" y="83" width="21" height="50" rx="10.5"></rect>
                    <rect id="Rectangle" x="0" y="139" width="21" height="50" rx="10.5"></rect>
                    <rect id="Rectangle" x="27" y="195" width="50" height="21" rx="10.5"></rect>
                    <rect id="Rectangle" x="83" y="195" width="50" height="21" rx="10.5"></rect>
                    <rect id="Rectangle" x="139" y="195" width="50" height="21" rx="10.5"></rect>
                    <rect id="Rectangle" x="139" y="27" width="50" height="50" rx="7"></rect>
                </g>
                <path d="M202.313017,98.3146488 C202.90018,97.1403236 204.328148,96.6643343 205.502473,97.2514969 L205.502473,97.2514969 L222.770874,105.885697 C223.230942,106.115732 223.603991,106.48878 223.834026,106.948849 C224.421188,108.123174 223.945199,109.551142 222.770874,110.138305 L222.770874,110.138305 L205.502473,118.772505 C205.172375,118.937554 204.808382,119.023481 204.439321,119.023481 C203.126386,119.023481 202.062041,117.959137 202.062041,116.646201 L202.062041,116.646201 L202.062,110.983 L125.023,110.983 L125.023481,116.646201 C125.023481,117.959137 123.959137,119.023481 122.646201,119.023481 C122.27714,119.023481 121.913148,118.937554 121.583049,118.772505 L104.314649,110.138305 C103.140324,109.551142 102.664334,108.123174 103.251497,106.948849 C103.481531,106.48878 103.85458,106.115732 104.314649,105.885697 L121.583049,97.2514969 C122.757375,96.6643343 124.185343,97.1403236 124.772505,98.3146488 C124.937554,98.6447471 125.023481,99.0087397 125.023481,99.3778008 L125.023,105.04 L202.062,105.04 L202.062041,99.3778008 C202.062041,99.0825519 202.117034,98.7905469 202.223537,98.5165445 Z" id="Combined-Shape" fill="#246BFD" transform="translate(163.542761, 108.011741) rotate(90.000000) translate(-163.542761, -108.011741) "></path>
                <path d="M92.3424544,126.314649 C92.929617,125.140324 94.3575851,124.664334 95.5319103,125.251497 L95.5319103,125.251497 L112.800311,133.885697 C113.26038,134.115732 113.633428,134.48878 113.863463,134.948849 C114.450625,136.123174 113.974636,137.551142 112.800311,138.138305 L112.800311,138.138305 L95.5319103,146.772505 C95.201812,146.937554 94.8378194,147.023481 94.4687583,147.023481 C93.1558228,147.023481 92.0914783,145.959137 92.0914783,144.646201 L92.0914783,144.646201 L92.091,138.983 L67.023,138.983 L67.0234814,144.646201 C67.0234814,145.959137 65.9591369,147.023481 64.6462014,147.023481 C64.2771403,147.023481 63.9131477,146.937554 63.5830494,146.772505 L46.3146488,138.138305 C45.1403236,137.551142 44.6643343,136.123174 45.2514969,134.948849 C45.4815313,134.48878 45.85458,134.115732 46.3146488,133.885697 L63.5830494,125.251497 C64.7573747,124.664334 66.1853427,125.140324 66.7725053,126.314649 C66.9375544,126.644747 67.0234814,127.00874 67.0234814,127.377801 L67.023,133.04 L92.091,133.04 L92.0914783,127.377801 C92.0914783,127.082552 92.1464716,126.790547 92.252974,126.516545 Z" id="Combined-Shape" fill="#246BFD" transform="translate(79.557480, 136.011741) rotate(45.000000) translate(-79.557480, -136.011741) "></path>
            </g>
        </g>
    </g>
</svg>