<?xml version="1.0" encoding="UTF-8"?>
<svg width="216px" height="216px" viewBox="0 0 216 216" version="1.1" xmlns="http://www.w3.org/2000/svg" xmlns:xlink="http://www.w3.org/1999/xlink">
    <!-- Generator: Sketch 62 (91390) - https://sketch.com -->
    <title>ga</title>
    <desc>Created with Sketch.</desc>
    <g id="Page-1" stroke="none" stroke-width="1" fill="none" fill-rule="evenodd">
        <g id="Desktop-HD-Copy" transform="translate(-528.000000, -1554.000000)">
            <g id="ga" transform="translate(528.000000, 1554.000000)">
                <g id="cube" fill="#64707F" fill-opacity="0.497268357">
                    <rect id="Rectangle" x="27" y="27" width="50" height="50" rx="7"></rect>
                    <rect id="Rectangle" x="83" y="27" width="50" height="50" rx="7"></rect>
                    <rect id="Rectangle" x="27" y="83" width="50" height="50" rx="7"></rect>
                    <rect id="Rectangle" x="83" y="83" width="50" height="50" rx="7"></rect>
                    <rect id="Rectangle" x="139" y="83" width="50" height="50" rx="7"></rect>
                    <rect id="Rectangle" x="27" y="139" width="50" height="50" rx="7"></rect>
                    <rect id="Rectangle" x="83" y="139" width="50" height="50" rx="7"></rect>
                    <rect id="Rectangle" x="139" y="139" width="50" height="50" rx="7"></rect>
                    <rect id="Rectangle" x="27" y="0" width="50" height="21" rx="10.5"></rect>
                    <rect id="Rectangle" x="83" y="0" width="50" height="21" rx="10.5"></rect>
                    <rect id="Rectangle" x="139" y="0" width="50" height="21" rx="10.5"></rect>
                    <rect id="Rectangle" x="195" y="27" width="21" height="50" rx="10.5"></rect>
                    <rect id="Rectangle" x="195" y="83" width="21" height="50" rx="10.5"></rect>
                    <rect id="Rectangle" x="195" y="139" width="21" height="50" rx="10.5"></rect>
                    <rect id="Rectangle" x="0" y="27" width="21" height="50" rx="10.5"></rect>
                    <rect id="Rectangle" x="0" y="83" width="21" height="50" rx="10.5"></rect>
                    <rect id="Rectangle" x="0" y="139" width="21" height="50" rx="10.5"></rect>
                    <rect id="Rectangle" x="27" y="195" width="50" height="21" rx="10.5"></rect>
                    <rect id="Rectangle" x="83" y="195" width="50" height="21" rx="10.5"></rect>
                    <rect id="Rectangle" x="139" y="195" width="50" height="21" rx="10.5"></rect>
                    <rect id="Rectangle" x="139" y="27" width="50" height="50" rx="7"></rect>
                </g>
                <path d="M138.896094,69.3146488 C139.483257,68.1403236 140.911225,67.6643343 142.08555,68.2514969 L142.08555,68.2514969 L159.353951,76.8856972 C159.81402,77.1157316 160.187068,77.4887803 160.417103,77.9488491 C161.004265,79.1231744 160.528276,80.5511424 159.353951,81.138305 L159.353951,81.138305 L142.08555,89.7725053 C141.755452,89.9375544 141.391459,90.0234814 141.022398,90.0234814 C139.709463,90.0234814 138.645118,88.9591369 138.645118,87.6462014 L138.645118,87.6462014 L138.645,81.983 L109.18864,81.9836011 C108.532172,81.9836011 108,81.4514289 108,80.7949611 L108,77.2290411 C108,76.5725733 108.532172,76.040401 109.18864,76.040401 L138.645,76.04 L138.645118,70.3778008 C138.645118,70.0825519 138.700112,69.7905469 138.806614,69.5165445 Z" id="Combined-Shape" fill="#246BFD" transform="translate(134.334300, 79.011741) scale(-1, -1) rotate(45.000000) translate(-134.334300, -79.011741) "></path>
                <path d="M84.8960944,72.3146488 C85.483257,71.1403236 86.911225,70.6643343 88.0855502,71.2514969 L88.0855502,71.2514969 L105.353951,79.8856972 C105.81402,80.1157316 106.187068,80.4887803 106.417103,80.9488491 C107.004265,82.1231744 106.528276,83.5511424 105.353951,84.138305 L105.353951,84.138305 L88.0855502,92.7725053 C87.755452,92.9375544 87.3914593,93.0234814 87.0223983,93.0234814 C85.7094628,93.0234814 84.6451182,91.9591369 84.6451182,90.6462014 L84.6451182,90.6462014 L84.645,84.983 L55.18864,84.9836011 C54.5321723,84.9836011 54,84.4514289 54,83.7949611 L54,80.2290411 C54,79.5725733 54.5321723,79.040401 55.18864,79.040401 L84.645,79.04 L84.6451182,73.3778008 C84.6451182,73.0825519 84.7001115,72.7905469 84.806614,72.5165445 Z" id="Combined-Shape" fill="#246BFD" transform="translate(80.334300, 82.011741) scale(-1, 1) rotate(45.000000) translate(-80.334300, -82.011741) "></path>
                <g id="Group" transform="translate(111.000000, 108.500000) scale(-1, 1) translate(-111.000000, -108.500000) translate(60.000000, 97.000000)" fill="#246BFD">
                    <path d="M22.3331842,1.59472793 C22.4982334,1.92482618 22.5841604,2.28881882 22.5841604,2.65787988 L22.5836789,8.32007909 L99.8296003,8.32048013 C100.486068,8.32048013 101.01824,8.8526524 101.01824,9.50912015 L101.01824,13.0750402 C101.01824,13.731508 100.486068,14.2636802 99.8296003,14.2636802 L22.5836789,14.2630791 L22.5841604,19.9262805 C22.5841604,21.239216 21.5198158,22.3035605 20.2068803,22.3035605 C19.8378193,22.3035605 19.4738266,22.2176335 19.1437284,22.0525844 L1.87532778,13.4183841 C0.701002554,12.8312215 0.225013211,11.4032534 0.812175822,10.2289282 C1.04221024,9.7688594 1.41525895,9.39581069 1.87532778,9.16577628 L19.1437284,0.531575977 C20.3180536,-0.0555866339 21.7460216,0.420402709 22.3331842,1.59472793 Z" id="Combined-Shape"></path>
                </g>
                <g id="Group" transform="translate(108.000000, 108.500000) scale(1, -1) rotate(45.000000) translate(-108.000000, -108.500000) translate(44.000000, 97.000000)" fill="#246BFD">
                    <path d="M22.3331842,1.59472793 C22.4982334,1.92482618 22.5841604,2.28881882 22.5841604,2.65787988 L22.5836789,8.32007909 L125.8296,8.32048013 C126.486068,8.32048013 127.01824,8.8526524 127.01824,9.50912015 L127.01824,13.0750402 C127.01824,13.731508 126.486068,14.2636802 125.8296,14.2636802 L22.5836789,14.2630791 L22.5841604,19.9262805 C22.5841604,21.239216 21.5198158,22.3035605 20.2068803,22.3035605 C19.8378193,22.3035605 19.4738266,22.2176335 19.1437284,22.0525844 L1.87532778,13.4183841 C0.701002554,12.8312215 0.225013211,11.4032534 0.812175822,10.2289282 C1.04221024,9.7688594 1.41525895,9.39581069 1.87532778,9.16577628 L19.1437284,0.531575977 C20.3180536,-0.0555866339 21.7460216,0.420402709 22.3331842,1.59472793 Z" id="Combined-Shape"></path>
                </g>
                <g id="Group" transform="translate(108.500000, 52.500000) scale(-1, 1) translate(-108.500000, -52.500000) translate(55.000000, 41.000000)" fill="#246BFD">
                    <path d="M22.3331842,1.59472793 C22.4982334,1.92482618 22.5841604,2.28881882 22.5841604,2.65787988 L22.5836789,8.32007909 L105.788962,8.32048013 C106.445429,8.32048013 106.977602,8.8526524 106.977602,9.50912015 L106.977602,13.0750402 C106.977602,13.731508 106.445429,14.2636802 105.788962,14.2636802 L22.5836789,14.2630791 L22.5841604,19.9262805 C22.5841604,21.239216 21.5198158,22.3035605 20.2068803,22.3035605 C19.8378193,22.3035605 19.4738266,22.2176335 19.1437284,22.0525844 L1.87532778,13.4183841 C0.701002554,12.8312215 0.225013211,11.4032534 0.812175822,10.2289282 C1.04221024,9.7688594 1.41525895,9.39581069 1.87532778,9.16577628 L19.1437284,0.531575977 C20.3180536,-0.0555866339 21.7460216,0.420402709 22.3331842,1.59472793 Z" id="Combined-Shape"></path>
                </g>
                <g id="Group" transform="translate(54.500000, 110.500000) rotate(90.000000) translate(-54.500000, -110.500000) translate(1.000000, 99.000000)" fill="#246BFD">
                    <path d="M21.7725053,1.31464884 C21.9375544,1.6447471 22.0234814,2.00873973 22.0234814,2.3778008 L22.023,8.04 L105.228283,8.04040105 C105.884751,8.04040105 106.416923,8.57257331 106.416923,9.22904107 L106.416923,12.7949611 C106.416923,13.4514289 105.884751,13.9836011 105.228283,13.9836011 L22.023,13.983 L22.0234814,19.6462014 C22.0234814,20.9591369 20.9591369,22.0234814 19.6462014,22.0234814 C19.2771403,22.0234814 18.9131477,21.9375544 18.5830494,21.7725053 L1.31464884,13.138305 C0.140323622,12.5511424 -0.33566572,11.1231744 0.25149689,9.94884914 C0.481531305,9.48878031 0.854580013,9.1157316 1.31464884,8.88569719 L18.5830494,0.25149689 C19.7573747,-0.33566572 21.1853427,0.140323622 21.7725053,1.31464884 Z" id="Combined-Shape"></path>
                </g>
            </g>
        </g>
    </g>
</svg>