<?xml version="1.0" encoding="UTF-8"?>
<svg width="216px" height="216px" viewBox="0 0 216 216" version="1.1" xmlns="http://www.w3.org/2000/svg" xmlns:xlink="http://www.w3.org/1999/xlink">
    <!-- Generator: Sketch 62 (91390) - https://sketch.com -->
    <title>jb</title>
    <desc>Created with Sketch.</desc>
    <g id="Page-1" stroke="none" stroke-width="1" fill="none" fill-rule="evenodd">
        <g id="Desktop-HD-Copy" transform="translate(-1060.000000, -756.000000)">
            <g id="jb" transform="translate(1060.000000, 756.000000)">
                <g id="cube" fill="#64707F" fill-opacity="0.497268357">
                    <rect id="Rectangle" x="27" y="27" width="50" height="50" rx="7"></rect>
                    <rect id="Rectangle" x="83" y="27" width="50" height="50" rx="7"></rect>
                    <rect id="Rectangle" x="27" y="83" width="50" height="50" rx="7"></rect>
                    <rect id="Rectangle" x="83" y="83" width="50" height="50" rx="7"></rect>
                    <rect id="Rectangle" x="139" y="83" width="50" height="50" rx="7"></rect>
                    <rect id="Rectangle" x="27" y="139" width="50" height="50" rx="7"></rect>
                    <rect id="Rectangle" x="83" y="139" width="50" height="50" rx="7"></rect>
                    <rect id="Rectangle" x="139" y="139" width="50" height="50" rx="7"></rect>
                    <rect id="Rectangle" x="27" y="0" width="50" height="21" rx="10.5"></rect>
                    <rect id="Rectangle" x="83" y="0" width="50" height="21" rx="10.5"></rect>
                    <rect id="Rectangle" x="139" y="0" width="50" height="21" rx="10.5"></rect>
                    <rect id="Rectangle" x="195" y="27" width="21" height="50" rx="10.5"></rect>
                    <rect id="Rectangle" x="195" y="83" width="21" height="50" rx="10.5"></rect>
                    <rect id="Rectangle" x="195" y="139" width="21" height="50" rx="10.5"></rect>
                    <rect id="Rectangle" x="0" y="27" width="21" height="50" rx="10.5"></rect>
                    <rect id="Rectangle" x="0" y="83" width="21" height="50" rx="10.5"></rect>
                    <rect id="Rectangle" x="0" y="139" width="21" height="50" rx="10.5"></rect>
                    <rect id="Rectangle" x="27" y="195" width="50" height="21" rx="10.5"></rect>
                    <rect id="Rectangle" x="83" y="195" width="50" height="21" rx="10.5"></rect>
                    <rect id="Rectangle" x="139" y="195" width="50" height="21" rx="10.5"></rect>
                    <rect id="Rectangle" x="139" y="27" width="50" height="50" rx="7"></rect>
                </g>
                <path d="M202.313017,98.3146488 C202.90018,97.1403236 204.328148,96.6643343 205.502473,97.2514969 L205.502473,97.2514969 L222.770874,105.885697 C223.230942,106.115732 223.603991,106.48878 223.834026,106.948849 C224.421188,108.123174 223.945199,109.551142 222.770874,110.138305 L222.770874,110.138305 L205.502473,118.772505 C205.172375,118.937554 204.808382,119.023481 204.439321,119.023481 C203.126386,119.023481 202.062041,117.959137 202.062041,116.646201 L202.062041,116.646201 L202.062,110.983 L125.023,110.983 L125.023481,116.646201 C125.023481,117.959137 123.959137,119.023481 122.646201,119.023481 C122.27714,119.023481 121.913148,118.937554 121.583049,118.772505 L104.314649,110.138305 C103.140324,109.551142 102.664334,108.123174 103.251497,106.948849 C103.481531,106.48878 103.85458,106.115732 104.314649,105.885697 L121.583049,97.2514969 C122.757375,96.6643343 124.185343,97.1403236 124.772505,98.3146488 C124.937554,98.6447471 125.023481,99.0087397 125.023481,99.3778008 L125.023,105.04 L202.062,105.04 L202.062041,99.3778008 C202.062041,99.0825519 202.117034,98.7905469 202.223537,98.5165445 Z" id="Combined-Shape" fill="#246BFD" transform="translate(163.542761, 108.011741) rotate(90.000000) translate(-163.542761, -108.011741) "></path>
                <path d="M149.007279,126.776273 C149.594442,125.601948 151.02241,125.125959 152.196735,125.713121 L152.196735,125.713121 L169.465136,134.347322 C169.925205,134.577356 170.298253,134.950405 170.528288,135.410474 C171.11545,136.584799 170.639461,138.012767 169.465136,138.599929 L169.465136,138.599929 L152.196735,147.23413 C151.866637,147.399179 151.502644,147.485106 151.133583,147.485106 C149.820648,147.485106 148.756303,146.420761 148.756303,145.107826 L148.756303,145.107826 L148.755825,139.444624 L123.687825,139.444624 L123.688306,145.107826 C123.688306,146.420761 122.623962,147.485106 121.311026,147.485106 C120.941965,147.485106 120.577973,147.399179 120.247874,147.23413 L102.979474,138.599929 C101.805149,138.012767 101.329159,136.584799 101.916322,135.410474 C102.146356,134.950405 102.519405,134.577356 102.979474,134.347322 L120.247874,125.713121 C121.4222,125.125959 122.850168,125.601948 123.43733,126.776273 C123.602379,127.106372 123.688306,127.470364 123.688306,127.839425 L123.687825,133.501624 L148.755825,133.501624 L148.756303,127.839425 C148.756303,127.544176 148.811297,127.252171 148.917799,126.978169 Z" id="Combined-Shape" fill="#246BFD" transform="translate(136.222305, 136.473365) scale(1, -1) rotate(45.000000) translate(-136.222305, -136.473365) "></path>
            </g>
        </g>
    </g>
</svg>