<?xml version="1.0" encoding="UTF-8"?>
<svg width="216px" height="216px" viewBox="0 0 216 216" version="1.1" xmlns="http://www.w3.org/2000/svg" xmlns:xlink="http://www.w3.org/1999/xlink">
    <!-- Generator: Sketch 62 (91390) - https://sketch.com -->
    <title>gb</title>
    <desc>Created with Sketch.</desc>
    <g id="Page-1" stroke="none" stroke-width="1" fill="none" fill-rule="evenodd">
        <g id="Desktop-HD-Copy" transform="translate(-794.000000, -1554.000000)">
            <g id="gb" transform="translate(794.000000, 1554.000000)">
                <g id="ga">
                    <g id="cube" fill="#64707F" fill-opacity="0.497268357">
                        <rect id="Rectangle" x="27" y="27" width="50" height="50" rx="7"></rect>
                        <rect id="Rectangle" x="83" y="27" width="50" height="50" rx="7"></rect>
                        <rect id="Rectangle" x="27" y="83" width="50" height="50" rx="7"></rect>
                        <rect id="Rectangle" x="83" y="83" width="50" height="50" rx="7"></rect>
                        <rect id="Rectangle" x="139" y="83" width="50" height="50" rx="7"></rect>
                        <rect id="Rectangle" x="27" y="139" width="50" height="50" rx="7"></rect>
                        <rect id="Rectangle" x="83" y="139" width="50" height="50" rx="7"></rect>
                        <rect id="Rectangle" x="139" y="139" width="50" height="50" rx="7"></rect>
                        <rect id="Rectangle" x="27" y="0" width="50" height="21" rx="10.5"></rect>
                        <rect id="Rectangle" x="83" y="0" width="50" height="21" rx="10.5"></rect>
                        <rect id="Rectangle" x="139" y="0" width="50" height="21" rx="10.5"></rect>
                        <rect id="Rectangle" x="195" y="27" width="21" height="50" rx="10.5"></rect>
                        <rect id="Rectangle" x="195" y="83" width="21" height="50" rx="10.5"></rect>
                        <rect id="Rectangle" x="195" y="139" width="21" height="50" rx="10.5"></rect>
                        <rect id="Rectangle" x="0" y="27" width="21" height="50" rx="10.5"></rect>
                        <rect id="Rectangle" x="0" y="83" width="21" height="50" rx="10.5"></rect>
                        <rect id="Rectangle" x="0" y="139" width="21" height="50" rx="10.5"></rect>
                        <rect id="Rectangle" x="27" y="195" width="50" height="21" rx="10.5"></rect>
                        <rect id="Rectangle" x="83" y="195" width="50" height="21" rx="10.5"></rect>
                        <rect id="Rectangle" x="139" y="195" width="50" height="21" rx="10.5"></rect>
                        <rect id="Rectangle" x="139" y="27" width="50" height="50" rx="7"></rect>
                    </g>
                    <path d="M145.896094,75.3146488 C146.483257,74.1403236 147.911225,73.6643343 149.08555,74.2514969 L149.08555,74.2514969 L166.353951,82.8856972 C166.81402,83.1157316 167.187068,83.4887803 167.417103,83.9488491 C168.004265,85.1231744 167.528276,86.5511424 166.353951,87.138305 L166.353951,87.138305 L149.08555,95.7725053 C148.755452,95.9375544 148.391459,96.0234814 148.022398,96.0234814 C146.709463,96.0234814 145.645118,94.9591369 145.645118,93.6462014 L145.645118,93.6462014 L145.645,87.983 L116.18864,87.9836011 C115.532172,87.9836011 115,87.4514289 115,86.7949611 L115,83.2290411 C115,82.5725733 115.532172,82.040401 116.18864,82.040401 L145.645,82.04 L145.645118,76.3778008 C145.645118,76.0825519 145.700112,75.7905469 145.806614,75.5165445 Z" id="Combined-Shape" fill="#246BFD" transform="translate(141.334300, 85.011741) rotate(45.000000) translate(-141.334300, -85.011741) "></path>
                    <path d="M85.8960944,71.3146488 C86.483257,70.1403236 87.911225,69.6643343 89.0855502,70.2514969 L89.0855502,70.2514969 L106.353951,78.8856972 C106.81402,79.1157316 107.187068,79.4887803 107.417103,79.9488491 C108.004265,81.1231744 107.528276,82.5511424 106.353951,83.138305 L106.353951,83.138305 L89.0855502,91.7725053 C88.755452,91.9375544 88.3914593,92.0234814 88.0223983,92.0234814 C86.7094628,92.0234814 85.6451182,90.9591369 85.6451182,89.6462014 L85.6451182,89.6462014 L85.645,83.983 L56.18864,83.9836011 C55.5321723,83.9836011 55,83.4514289 55,82.7949611 L55,79.2290411 C55,78.5725733 55.5321723,78.040401 56.18864,78.040401 L85.645,78.04 L85.6451182,72.3778008 C85.6451182,72.0825519 85.7001115,71.7905469 85.806614,71.5165445 Z" id="Combined-Shape" fill="#246BFD" transform="translate(81.334300, 81.011741) scale(1, -1) rotate(45.000000) translate(-81.334300, -81.011741) "></path>
                    <g id="Group" transform="translate(111.000000, 108.500000) scale(-1, 1) translate(-111.000000, -108.500000) translate(60.000000, 97.000000)" fill="#246BFD">
                        <path d="M22.3331842,1.59472793 C22.4982334,1.92482618 22.5841604,2.28881882 22.5841604,2.65787988 L22.5836789,8.32007909 L99.8296003,8.32048013 C100.486068,8.32048013 101.01824,8.8526524 101.01824,9.50912015 L101.01824,13.0750402 C101.01824,13.731508 100.486068,14.2636802 99.8296003,14.2636802 L22.5836789,14.2630791 L22.5841604,19.9262805 C22.5841604,21.239216 21.5198158,22.3035605 20.2068803,22.3035605 C19.8378193,22.3035605 19.4738266,22.2176335 19.1437284,22.0525844 L1.87532778,13.4183841 C0.701002554,12.8312215 0.225013211,11.4032534 0.812175822,10.2289282 C1.04221024,9.7688594 1.41525895,9.39581069 1.87532778,9.16577628 L19.1437284,0.531575977 C20.3180536,-0.0555866339 21.7460216,0.420402709 22.3331842,1.59472793 Z" id="Combined-Shape" transform="translate(50.789460, 11.291820) scale(-1, -1) translate(-50.789460, -11.291820) "></path>
                    </g>
                    <g id="Group" transform="translate(114.000000, 102.500000) scale(1, -1) rotate(45.000000) translate(-114.000000, -102.500000) translate(50.000000, 91.000000)" fill="#246BFD">
                        <path d="M22.3331842,1.59472793 C22.4982334,1.92482618 22.5841604,2.28881882 22.5841604,2.65787988 L22.5836789,8.32007909 L125.8296,8.32048013 C126.486068,8.32048013 127.01824,8.8526524 127.01824,9.50912015 L127.01824,13.0750402 C127.01824,13.731508 126.486068,14.2636802 125.8296,14.2636802 L22.5836789,14.2630791 L22.5841604,19.9262805 C22.5841604,21.239216 21.5198158,22.3035605 20.2068803,22.3035605 C19.8378193,22.3035605 19.4738266,22.2176335 19.1437284,22.0525844 L1.87532778,13.4183841 C0.701002554,12.8312215 0.225013211,11.4032534 0.812175822,10.2289282 C1.04221024,9.7688594 1.41525895,9.39581069 1.87532778,9.16577628 L19.1437284,0.531575977 C20.3180536,-0.0555866339 21.7460216,0.420402709 22.3331842,1.59472793 Z" id="Combined-Shape" transform="translate(63.789460, 11.291820) scale(-1, 1) translate(-63.789460, -11.291820) "></path>
                    </g>
                    <g id="Group" transform="translate(55.000000, 41.000000)" fill="#246BFD">
                        <path d="M22.3331842,1.59472793 C22.4982334,1.92482618 22.5841604,2.28881882 22.5841604,2.65787988 L22.5836789,8.32007909 L105.788962,8.32048013 C106.445429,8.32048013 106.977602,8.8526524 106.977602,9.50912015 L106.977602,13.0750402 C106.977602,13.731508 106.445429,14.2636802 105.788962,14.2636802 L22.5836789,14.2630791 L22.5841604,19.9262805 C22.5841604,21.239216 21.5198158,22.3035605 20.2068803,22.3035605 C19.8378193,22.3035605 19.4738266,22.2176335 19.1437284,22.0525844 L1.87532778,13.4183841 C0.701002554,12.8312215 0.225013211,11.4032534 0.812175822,10.2289282 C1.04221024,9.7688594 1.41525895,9.39581069 1.87532778,9.16577628 L19.1437284,0.531575977 C20.3180536,-0.0555866339 21.7460216,0.420402709 22.3331842,1.59472793 Z" id="Combined-Shape"></path>
                    </g>
                    <g id="Group" transform="translate(54.500000, 110.500000) scale(1, -1) rotate(90.000000) translate(-54.500000, -110.500000) translate(1.000000, 99.000000)" fill="#246BFD">
                        <path d="M21.7725053,1.31464884 C21.9375544,1.6447471 22.0234814,2.00873973 22.0234814,2.3778008 L22.023,8.04 L105.228283,8.04040105 C105.884751,8.04040105 106.416923,8.57257331 106.416923,9.22904107 L106.416923,12.7949611 C106.416923,13.4514289 105.884751,13.9836011 105.228283,13.9836011 L22.023,13.983 L22.0234814,19.6462014 C22.0234814,20.9591369 20.9591369,22.0234814 19.6462014,22.0234814 C19.2771403,22.0234814 18.9131477,21.9375544 18.5830494,21.7725053 L1.31464884,13.138305 C0.140323622,12.5511424 -0.33566572,11.1231744 0.25149689,9.94884914 C0.481531305,9.48878031 0.854580013,9.1157316 1.31464884,8.88569719 L18.5830494,0.25149689 C19.7573747,-0.33566572 21.1853427,0.140323622 21.7725053,1.31464884 Z" id="Combined-Shape"></path>
                    </g>
                </g>
            </g>
        </g>
    </g>
</svg>