<?xml version="1.0" encoding="UTF-8"?>
<svg width="216px" height="216px" viewBox="0 0 216 216" version="1.1" xmlns="http://www.w3.org/2000/svg" xmlns:xlink="http://www.w3.org/1999/xlink">
    <!-- Generator: Sketch 62 (91390) - https://sketch.com -->
    <title>e</title>
    <desc>Created with Sketch.</desc>
    <g id="Page-1" stroke="none" stroke-width="1" fill="none" fill-rule="evenodd">
        <g id="Desktop-HD-Copy" transform="translate(-262.000000, -1022.000000)">
            <g id="e" transform="translate(262.000000, 1022.000000)">
                <g id="cube" fill="#64707F" fill-opacity="0.497268357">
                    <rect id="Rectangle" x="27" y="27" width="50" height="50" rx="7"></rect>
                    <rect id="Rectangle" x="83" y="27" width="50" height="50" rx="7"></rect>
                    <rect id="Rectangle" x="27" y="83" width="50" height="50" rx="7"></rect>
                    <rect id="Rectangle" x="83" y="83" width="50" height="50" rx="7"></rect>
                    <rect id="Rectangle" x="139" y="83" width="50" height="50" rx="7"></rect>
                    <rect id="Rectangle" x="27" y="139" width="50" height="50" rx="7"></rect>
                    <rect id="Rectangle" x="83" y="139" width="50" height="50" rx="7"></rect>
                    <rect id="Rectangle" x="139" y="139" width="50" height="50" rx="7"></rect>
                    <rect id="Rectangle" x="27" y="0" width="50" height="21" rx="10.5"></rect>
                    <rect id="Rectangle" x="83" y="0" width="50" height="21" rx="10.5"></rect>
                    <rect id="Rectangle" x="139" y="0" width="50" height="21" rx="10.5"></rect>
                    <rect id="Rectangle" x="195" y="27" width="21" height="50" rx="10.5"></rect>
                    <rect id="Rectangle" x="195" y="83" width="21" height="50" rx="10.5"></rect>
                    <rect id="Rectangle" x="195" y="139" width="21" height="50" rx="10.5"></rect>
                    <rect id="Rectangle" x="0" y="27" width="21" height="50" rx="10.5"></rect>
                    <rect id="Rectangle" x="0" y="83" width="21" height="50" rx="10.5"></rect>
                    <rect id="Rectangle" x="0" y="139" width="21" height="50" rx="10.5"></rect>
                    <rect id="Rectangle" x="27" y="195" width="50" height="21" rx="10.5"></rect>
                    <rect id="Rectangle" x="83" y="195" width="50" height="21" rx="10.5"></rect>
                    <rect id="Rectangle" x="139" y="195" width="50" height="21" rx="10.5"></rect>
                    <rect id="Rectangle" x="139" y="27" width="50" height="50" rx="7"></rect>
                </g>
                <path d="M202.313017,98.3146488 C202.90018,97.1403236 204.328148,96.6643343 205.502473,97.2514969 L205.502473,97.2514969 L222.770874,105.885697 C223.230942,106.115732 223.603991,106.48878 223.834026,106.948849 C224.421188,108.123174 223.945199,109.551142 222.770874,110.138305 L222.770874,110.138305 L205.502473,118.772505 C205.172375,118.937554 204.808382,119.023481 204.439321,119.023481 C203.126386,119.023481 202.062041,117.959137 202.062041,116.646201 L202.062041,116.646201 L202.062,110.983 L125.023,110.983 L125.023481,116.646201 C125.023481,117.959137 123.959137,119.023481 122.646201,119.023481 C122.27714,119.023481 121.913148,118.937554 121.583049,118.772505 L104.314649,110.138305 C103.140324,109.551142 102.664334,108.123174 103.251497,106.948849 C103.481531,106.48878 103.85458,106.115732 104.314649,105.885697 L121.583049,97.2514969 C122.757375,96.6643343 124.185343,97.1403236 124.772505,98.3146488 C124.937554,98.6447471 125.023481,99.0087397 125.023481,99.3778008 L125.023,105.04 L202.062,105.04 L202.062041,99.3778008 C202.062041,99.0825519 202.117034,98.7905469 202.223537,98.5165445 Z" id="Combined-Shape" fill="#246BFD" transform="translate(163.542761, 108.011741) rotate(90.000000) translate(-163.542761, -108.011741) "></path>
                <path d="M90.3130172,98.3146488 C90.9001798,97.1403236 92.3281478,96.6643343 93.502473,97.2514969 L93.502473,97.2514969 L110.770874,105.885697 C111.230942,106.115732 111.603991,106.48878 111.834026,106.948849 C112.421188,108.123174 111.945199,109.551142 110.770874,110.138305 L110.770874,110.138305 L93.502473,118.772505 C93.1723748,118.937554 92.8083821,119.023481 92.4393211,119.023481 C91.1263856,119.023481 90.062041,117.959137 90.062041,116.646201 L90.062041,116.646201 L90.062,110.983 L13.023,110.983 L13.0234814,116.646201 C13.0234814,117.959137 11.9591369,119.023481 10.6462014,119.023481 C10.2771403,119.023481 9.91314769,118.937554 9.58304944,118.772505 L-7.68535116,110.138305 C-8.85967638,109.551142 -9.33566572,108.123174 -8.74850311,106.948849 C-8.51846869,106.48878 -8.14541999,106.115732 -7.68535116,105.885697 L9.58304944,97.2514969 C10.7573747,96.6643343 12.1853427,97.1403236 12.7725053,98.3146488 C12.9375544,98.6447471 13.0234814,99.0087397 13.0234814,99.3778008 L13.023,105.04 L90.062,105.04 L90.062041,99.3778008 C90.062041,99.0825519 90.1170343,98.7905469 90.2235368,98.5165445 Z" id="Combined-Shape" fill="#246BFD" transform="translate(51.542761, 108.011741) rotate(90.000000) translate(-51.542761, -108.011741) "></path>
            </g>
        </g>
    </g>
</svg>