<?xml version="1.0" encoding="UTF-8"?>
<svg width="216px" height="216px" viewBox="0 0 216 216" version="1.1" xmlns="http://www.w3.org/2000/svg" xmlns:xlink="http://www.w3.org/1999/xlink">
    <!-- Generator: Sketch 62 (91390) - https://sketch.com -->
    <title>ja</title>
    <desc>Created with Sketch.</desc>
    <g id="Page-1" stroke="none" stroke-width="1" fill="none" fill-rule="evenodd">
        <g id="Desktop-HD-Copy" transform="translate(-1060.000000, -490.000000)">
            <g id="ja" transform="translate(1060.000000, 490.000000)">
                <g>
                    <g id="cube" fill="#64707F" fill-opacity="0.497268357">
                        <rect id="Rectangle" x="27" y="27" width="50" height="50" rx="7"></rect>
                        <rect id="Rectangle" x="83" y="27" width="50" height="50" rx="7"></rect>
                        <rect id="Rectangle" x="27" y="83" width="50" height="50" rx="7"></rect>
                        <rect id="Rectangle" x="83" y="83" width="50" height="50" rx="7"></rect>
                        <rect id="Rectangle" x="139" y="83" width="50" height="50" rx="7"></rect>
                        <rect id="Rectangle" x="27" y="139" width="50" height="50" rx="7"></rect>
                        <rect id="Rectangle" x="83" y="139" width="50" height="50" rx="7"></rect>
                        <rect id="Rectangle" x="139" y="139" width="50" height="50" rx="7"></rect>
                        <rect id="Rectangle" x="27" y="0" width="50" height="21" rx="10.5"></rect>
                        <rect id="Rectangle" x="83" y="0" width="50" height="21" rx="10.5"></rect>
                        <rect id="Rectangle" x="139" y="0" width="50" height="21" rx="10.5"></rect>
                        <rect id="Rectangle" x="195" y="27" width="21" height="50" rx="10.5"></rect>
                        <rect id="Rectangle" x="195" y="83" width="21" height="50" rx="10.5"></rect>
                        <rect id="Rectangle" x="195" y="139" width="21" height="50" rx="10.5"></rect>
                        <rect id="Rectangle" x="0" y="27" width="21" height="50" rx="10.5"></rect>
                        <rect id="Rectangle" x="0" y="83" width="21" height="50" rx="10.5"></rect>
                        <rect id="Rectangle" x="0" y="139" width="21" height="50" rx="10.5"></rect>
                        <rect id="Rectangle" x="27" y="195" width="50" height="21" rx="10.5"></rect>
                        <rect id="Rectangle" x="83" y="195" width="50" height="21" rx="10.5"></rect>
                        <rect id="Rectangle" x="139" y="195" width="50" height="21" rx="10.5"></rect>
                        <rect id="Rectangle" x="139" y="27" width="50" height="50" rx="7"></rect>
                    </g>
                    <path d="M202.313017,98.3146488 C202.90018,97.1403236 204.328148,96.6643343 205.502473,97.2514969 L205.502473,97.2514969 L222.770874,105.885697 C223.230942,106.115732 223.603991,106.48878 223.834026,106.948849 C224.421188,108.123174 223.945199,109.551142 222.770874,110.138305 L222.770874,110.138305 L205.502473,118.772505 C205.172375,118.937554 204.808382,119.023481 204.439321,119.023481 C203.126386,119.023481 202.062041,117.959137 202.062041,116.646201 L202.062041,116.646201 L202.062,110.983 L125.023,110.983 L125.023481,116.646201 C125.023481,117.959137 123.959137,119.023481 122.646201,119.023481 C122.27714,119.023481 121.913148,118.937554 121.583049,118.772505 L104.314649,110.138305 C103.140324,109.551142 102.664334,108.123174 103.251497,106.948849 C103.481531,106.48878 103.85458,106.115732 104.314649,105.885697 L121.583049,97.2514969 C122.757375,96.6643343 124.185343,97.1403236 124.772505,98.3146488 C124.937554,98.6447471 125.023481,99.0087397 125.023481,99.3778008 L125.023,105.04 L202.062,105.04 L202.062041,99.3778008 C202.062041,99.0825519 202.117034,98.7905469 202.223537,98.5165445 Z" id="Combined-Shape" fill="#246BFD" transform="translate(163.542761, 108.011741) rotate(90.000000) translate(-163.542761, -108.011741) "></path>
                    <path d="M149.917822,70.2452527 C150.504985,69.0709275 151.932953,68.5949382 153.107278,69.1821008 L153.107278,69.1821008 L170.375679,77.8163011 C170.835747,78.0463355 171.208796,78.4193842 171.43883,78.879453 C172.025993,80.0537783 171.550004,81.4817463 170.375679,82.0689089 L170.375679,82.0689089 L153.107278,90.7031092 C152.77718,90.8681583 152.413187,90.9540853 152.044126,90.9540853 C150.73119,90.9540853 149.666846,89.8897408 149.666846,88.5768053 L149.666846,88.5768053 L149.666368,82.9136039 L124.598368,82.9136039 L124.598849,88.5768053 C124.598849,89.8897408 123.534505,90.9540853 122.221569,90.9540853 C121.852508,90.9540853 121.488515,90.8681583 121.158417,90.7031092 L103.890017,82.0689089 C102.715691,81.4817463 102.239702,80.0537783 102.826865,78.879453 C103.056899,78.4193842 103.429948,78.0463355 103.890017,77.8163011 L121.158417,69.1821008 C122.332742,68.5949382 123.76071,69.0709275 124.347873,70.2452527 C124.512922,70.575351 124.598849,70.9393436 124.598849,71.3084047 L124.598368,76.9706039 L149.666368,76.9706039 L149.666846,71.3084047 C149.666846,71.0131558 149.721839,70.7211508 149.828342,70.4471484 Z" id="Combined-Shape" fill="#246BFD" transform="translate(137.132848, 79.942345) rotate(45.000000) translate(-137.132848, -79.942345) "></path>
                </g>
                <g id="Group" transform="translate(163.000000, 108.500000) rotate(90.000000) translate(-163.000000, -108.500000) translate(102.000000, 97.000000)"></g>
                <g id="Group" transform="translate(136.767767, 80.267767) rotate(45.000000) translate(-136.767767, -80.267767) translate(101.267767, 68.767767)"></g>
            </g>
        </g>
    </g>
</svg>