<?xml version="1.0" encoding="UTF-8"?>
<svg width="216px" height="216px" viewBox="0 0 216 216" version="1.1" xmlns="http://www.w3.org/2000/svg" xmlns:xlink="http://www.w3.org/1999/xlink">
    <!-- Generator: Sketch 62 (91390) - https://sketch.com -->
    <title>v</title>
    <desc>Created with Sketch.</desc>
    <g id="Page-1" stroke="none" stroke-width="1" fill="none" fill-rule="evenodd">
        <g id="Desktop-HD-Copy" transform="translate(-794.000000, -1022.000000)">
            <g id="v" transform="translate(794.000000, 1022.000000)">
                <g id="cube" fill="#64707F" fill-opacity="0.497268357">
                    <rect id="Rectangle" x="27" y="27" width="50" height="50" rx="7"></rect>
                    <rect id="Rectangle" x="83" y="27" width="50" height="50" rx="7"></rect>
                    <rect id="Rectangle" x="27" y="83" width="50" height="50" rx="7"></rect>
                    <rect id="Rectangle" x="83" y="83" width="50" height="50" rx="7"></rect>
                    <rect id="Rectangle" x="139" y="83" width="50" height="50" rx="7"></rect>
                    <rect id="Rectangle" x="27" y="139" width="50" height="50" rx="7"></rect>
                    <rect id="Rectangle" x="83" y="139" width="50" height="50" rx="7"></rect>
                    <rect id="Rectangle" x="139" y="139" width="50" height="50" rx="7"></rect>
                    <rect id="Rectangle" x="27" y="0" width="50" height="21" rx="10.5"></rect>
                    <rect id="Rectangle" x="83" y="0" width="50" height="21" rx="10.5"></rect>
                    <rect id="Rectangle" x="139" y="0" width="50" height="21" rx="10.5"></rect>
                    <rect id="Rectangle" x="195" y="27" width="21" height="50" rx="10.5"></rect>
                    <rect id="Rectangle" x="195" y="83" width="21" height="50" rx="10.5"></rect>
                    <rect id="Rectangle" x="195" y="139" width="21" height="50" rx="10.5"></rect>
                    <rect id="Rectangle" x="0" y="27" width="21" height="50" rx="10.5"></rect>
                    <rect id="Rectangle" x="0" y="83" width="21" height="50" rx="10.5"></rect>
                    <rect id="Rectangle" x="0" y="139" width="21" height="50" rx="10.5"></rect>
                    <rect id="Rectangle" x="27" y="195" width="50" height="21" rx="10.5"></rect>
                    <rect id="Rectangle" x="83" y="195" width="50" height="21" rx="10.5"></rect>
                    <rect id="Rectangle" x="139" y="195" width="50" height="21" rx="10.5"></rect>
                    <rect id="Rectangle" x="139" y="27" width="50" height="50" rx="7"></rect>
                </g>
                <g id="Group" transform="translate(108.000000, 108.500000) rotate(45.000000) translate(-108.000000, -108.500000) translate(38.000000, 97.000000)" fill="#246BFD">
                    <path d="M120.03658,0.280599845 C120.405641,0.280599845 120.769634,0.36652685 121.099732,0.531575977 L138.368132,9.16577628 C139.542458,9.75293889 140.018447,11.1809069 139.431284,12.3552321 C139.20125,12.815301 138.828201,13.1883497 138.368132,13.4183841 L121.099732,22.0525844 C119.925407,22.639747 118.497439,22.1637577 117.910276,20.9894324 C117.745227,20.6593342 117.6593,20.2953415 117.6593,19.9262805 L117.659106,14.2630791 L22.4121061,14.2630791 L22.4125875,19.9262805 C22.4125875,21.239216 21.348243,22.3035605 20.0353075,22.3035605 C19.6662464,22.3035605 19.3022537,22.2176335 18.9721555,22.0525844 L1.7037549,13.4183841 C0.529429679,12.8312215 0.0534403362,11.4032534 0.640602947,10.2289282 C0.870637362,9.7688594 1.24368607,9.39581069 1.7037549,9.16577628 L18.9721555,0.531575977 C20.1464807,-0.0555866339 21.5744487,0.420402709 22.1616114,1.59472793 C22.3266605,1.92482618 22.4125875,2.28881882 22.4125875,2.65787988 L22.4121061,8.32007909 L117.659106,8.32007909 L117.6593,2.65787988 C117.6593,1.34494437 118.723644,0.280599845 120.03658,0.280599845 Z" id="Combined-Shape"></path>
                </g>
                <path d="M148.342454,70.3146488 C148.929617,69.1403236 150.357585,68.6643343 151.53191,69.2514969 L151.53191,69.2514969 L168.800311,77.8856972 C169.26038,78.1157316 169.633428,78.4887803 169.863463,78.9488491 C170.450625,80.1231744 169.974636,81.5511424 168.800311,82.138305 L168.800311,82.138305 L151.53191,90.7725053 C151.201812,90.9375544 150.837819,91.0234814 150.468758,91.0234814 C149.155823,91.0234814 148.091478,89.9591369 148.091478,88.6462014 L148.091478,88.6462014 L148.091,82.983 L123.023,82.983 L123.023481,88.6462014 C123.023481,89.9591369 121.959137,91.0234814 120.646201,91.0234814 C120.27714,91.0234814 119.913148,90.9375544 119.583049,90.7725053 L102.314649,82.138305 C101.140324,81.5511424 100.664334,80.1231744 101.251497,78.9488491 C101.481531,78.4887803 101.85458,78.1157316 102.314649,77.8856972 L119.583049,69.2514969 C120.757375,68.6643343 122.185343,69.1403236 122.772505,70.3146488 C122.937554,70.6447471 123.023481,71.0087397 123.023481,71.3778008 L123.023,77.04 L148.091,77.04 L148.091478,71.3778008 C148.091478,71.0825519 148.146472,70.7905469 148.252974,70.5165445 Z" id="Combined-Shape" fill="#246BFD" transform="translate(135.557480, 80.011741) rotate(45.000000) translate(-135.557480, -80.011741) "></path>
            </g>
        </g>
    </g>
</svg>