<?xml version="1.0" encoding="UTF-8"?>
<svg width="216px" height="216px" viewBox="0 0 216 216" version="1.1" xmlns="http://www.w3.org/2000/svg" xmlns:xlink="http://www.w3.org/1999/xlink">
    <!-- Generator: Sketch 62 (91390) - https://sketch.com -->
    <title>ra</title>
    <desc>Created with Sketch.</desc>
    <g id="Page-1" stroke="none" stroke-width="1" fill="none" fill-rule="evenodd">
        <g id="Desktop-HD-Copy" transform="translate(-794.000000, -756.000000)">
            <g id="ra" transform="translate(794.000000, 756.000000)">
                <g id="cube" fill="#64707F" fill-opacity="0.497268357">
                    <rect id="Rectangle" x="27" y="27" width="50" height="50" rx="7"></rect>
                    <rect id="Rectangle" x="83" y="27" width="50" height="50" rx="7"></rect>
                    <rect id="Rectangle" x="27" y="83" width="50" height="50" rx="7"></rect>
                    <rect id="Rectangle" x="83" y="83" width="50" height="50" rx="7"></rect>
                    <rect id="Rectangle" x="139" y="83" width="50" height="50" rx="7"></rect>
                    <rect id="Rectangle" x="27" y="139" width="50" height="50" rx="7"></rect>
                    <rect id="Rectangle" x="83" y="139" width="50" height="50" rx="7"></rect>
                    <rect id="Rectangle" x="139" y="139" width="50" height="50" rx="7"></rect>
                    <rect id="Rectangle" x="27" y="0" width="50" height="21" rx="10.5"></rect>
                    <rect id="Rectangle" x="83" y="0" width="50" height="21" rx="10.5"></rect>
                    <rect id="Rectangle" x="139" y="0" width="50" height="21" rx="10.5"></rect>
                    <rect id="Rectangle" x="195" y="27" width="21" height="50" rx="10.5"></rect>
                    <rect id="Rectangle" x="195" y="83" width="21" height="50" rx="10.5"></rect>
                    <rect id="Rectangle" x="195" y="139" width="21" height="50" rx="10.5"></rect>
                    <rect id="Rectangle" x="0" y="27" width="21" height="50" rx="10.5"></rect>
                    <rect id="Rectangle" x="0" y="83" width="21" height="50" rx="10.5"></rect>
                    <rect id="Rectangle" x="0" y="139" width="21" height="50" rx="10.5"></rect>
                    <rect id="Rectangle" x="27" y="195" width="50" height="21" rx="10.5"></rect>
                    <rect id="Rectangle" x="83" y="195" width="50" height="21" rx="10.5"></rect>
                    <rect id="Rectangle" x="139" y="195" width="50" height="21" rx="10.5"></rect>
                    <rect id="Rectangle" x="139" y="27" width="50" height="50" rx="7"></rect>
                </g>
                <path d="M203.313017,97.8456694 C203.90018,96.6713441 205.328148,96.1953548 206.502473,96.7825174 L206.502473,96.7825174 L223.770874,105.416718 C224.230942,105.646752 224.603991,106.019801 224.834026,106.47987 C225.421188,107.654195 224.945199,109.082163 223.770874,109.669326 L223.770874,109.669326 L206.502473,118.303526 C206.172375,118.468575 205.808382,118.554502 205.439321,118.554502 C204.126386,118.554502 203.062041,117.490157 203.062041,116.177222 L203.062041,116.177222 L203.062,110.514021 L126.023,110.514021 L126.023481,116.177222 C126.023481,117.490157 124.959137,118.554502 123.646201,118.554502 C123.27714,118.554502 122.913148,118.468575 122.583049,118.303526 L105.314649,109.669326 C104.140324,109.082163 103.664334,107.654195 104.251497,106.47987 C104.481531,106.019801 104.85458,105.646752 105.314649,105.416718 L122.583049,96.7825174 C123.757375,96.1953548 125.185343,96.6713441 125.772505,97.8456694 C125.937554,98.1757676 126.023481,98.5397602 126.023481,98.9088213 L126.023,104.571021 L203.062,104.571021 L203.062041,98.9088213 C203.062041,98.6135725 203.117034,98.3215674 203.223537,98.047565 Z" id="Combined-Shape" fill="#246BFD" transform="translate(164.542761, 107.542761) rotate(90.000000) translate(-164.542761, -107.542761) "></path>
                <path d="M92.3424544,69.3146488 C92.929617,68.1403236 94.3575851,67.6643343 95.5319103,68.2514969 L95.5319103,68.2514969 L112.800311,76.8856972 C113.26038,77.1157316 113.633428,77.4887803 113.863463,77.9488491 C114.450625,79.1231744 113.974636,80.5511424 112.800311,81.138305 L112.800311,81.138305 L95.5319103,89.7725053 C95.201812,89.9375544 94.8378194,90.0234814 94.4687583,90.0234814 C93.1558228,90.0234814 92.0914783,88.9591369 92.0914783,87.6462014 L92.0914783,87.6462014 L92.091,81.983 L67.023,81.983 L67.0234814,87.6462014 C67.0234814,88.9591369 65.9591369,90.0234814 64.6462014,90.0234814 C64.2771403,90.0234814 63.9131477,89.9375544 63.5830494,89.7725053 L46.3146488,81.138305 C45.1403236,80.5511424 44.6643343,79.1231744 45.2514969,77.9488491 C45.4815313,77.4887803 45.85458,77.1157316 46.3146488,76.8856972 L63.5830494,68.2514969 C64.7573747,67.6643343 66.1853427,68.1403236 66.7725053,69.3146488 C66.9375544,69.6447471 67.0234814,70.0087397 67.0234814,70.3778008 L67.023,76.04 L92.091,76.04 L92.0914783,70.3778008 C92.0914783,70.0825519 92.1464716,69.7905469 92.252974,69.5165445 Z" id="Combined-Shape" fill="#246BFD" transform="translate(79.557480, 79.011741) scale(1, -1) rotate(45.000000) translate(-79.557480, -79.011741) "></path>
            </g>
        </g>
    </g>
</svg>