<?xml version="1.0" encoding="UTF-8"?>
<svg width="216px" height="216px" viewBox="0 0 216 216" version="1.1" xmlns="http://www.w3.org/2000/svg" xmlns:xlink="http://www.w3.org/1999/xlink">
    <!-- Generator: Sketch 62 (91390) - https://sketch.com -->
    <title>y</title>
    <desc>Created with Sketch.</desc>
    <g id="Page-1" stroke="none" stroke-width="1" fill="none" fill-rule="evenodd">
        <g id="Desktop-HD-Copy" transform="translate(-1060.000000, -1022.000000)">
            <g id="y" transform="translate(1060.000000, 1022.000000)">
                <g id="cube" fill="#64707F" fill-opacity="0.497268357">
                    <rect id="Rectangle" x="27" y="27" width="50" height="50" rx="7"></rect>
                    <rect id="Rectangle" x="83" y="27" width="50" height="50" rx="7"></rect>
                    <rect id="Rectangle" x="27" y="83" width="50" height="50" rx="7"></rect>
                    <rect id="Rectangle" x="83" y="83" width="50" height="50" rx="7"></rect>
                    <rect id="Rectangle" x="139" y="83" width="50" height="50" rx="7"></rect>
                    <rect id="Rectangle" x="27" y="139" width="50" height="50" rx="7"></rect>
                    <rect id="Rectangle" x="83" y="139" width="50" height="50" rx="7"></rect>
                    <rect id="Rectangle" x="139" y="139" width="50" height="50" rx="7"></rect>
                    <rect id="Rectangle" x="27" y="0" width="50" height="21" rx="10.5"></rect>
                    <rect id="Rectangle" x="83" y="0" width="50" height="21" rx="10.5"></rect>
                    <rect id="Rectangle" x="139" y="0" width="50" height="21" rx="10.5"></rect>
                    <rect id="Rectangle" x="195" y="27" width="21" height="50" rx="10.5"></rect>
                    <rect id="Rectangle" x="195" y="83" width="21" height="50" rx="10.5"></rect>
                    <rect id="Rectangle" x="195" y="139" width="21" height="50" rx="10.5"></rect>
                    <rect id="Rectangle" x="0" y="27" width="21" height="50" rx="10.5"></rect>
                    <rect id="Rectangle" x="0" y="83" width="21" height="50" rx="10.5"></rect>
                    <rect id="Rectangle" x="0" y="139" width="21" height="50" rx="10.5"></rect>
                    <rect id="Rectangle" x="27" y="195" width="50" height="21" rx="10.5"></rect>
                    <rect id="Rectangle" x="83" y="195" width="50" height="21" rx="10.5"></rect>
                    <rect id="Rectangle" x="139" y="195" width="50" height="21" rx="10.5"></rect>
                    <rect id="Rectangle" x="139" y="27" width="50" height="50" rx="7"></rect>
                </g>
                <path d="M93.3424544,70.3146488 C93.929617,69.1403236 95.3575851,68.6643343 96.5319103,69.2514969 L96.5319103,69.2514969 L113.800311,77.8856972 C114.26038,78.1157316 114.633428,78.4887803 114.863463,78.9488491 C115.450625,80.1231744 114.974636,81.5511424 113.800311,82.138305 L113.800311,82.138305 L96.5319103,90.7725053 C96.201812,90.9375544 95.8378194,91.0234814 95.4687583,91.0234814 C94.1558228,91.0234814 93.0914783,89.9591369 93.0914783,88.6462014 L93.0914783,88.6462014 L93.091,82.983 L68.023,82.983 L68.0234814,88.6462014 C68.0234814,89.9591369 66.9591369,91.0234814 65.6462014,91.0234814 C65.2771403,91.0234814 64.9131477,90.9375544 64.5830494,90.7725053 L47.3146488,82.138305 C46.1403236,81.5511424 45.6643343,80.1231744 46.2514969,78.9488491 C46.4815313,78.4887803 46.85458,78.1157316 47.3146488,77.8856972 L64.5830494,69.2514969 C65.7573747,68.6643343 67.1853427,69.1403236 67.7725053,70.3146488 C67.9375544,70.6447471 68.0234814,71.0087397 68.0234814,71.3778008 L68.023,77.04 L93.091,77.04 L93.0914783,71.3778008 C93.0914783,71.0825519 93.1464716,70.7905469 93.252974,70.5165445 Z" id="Combined-Shape" fill="#246BFD" transform="translate(80.557480, 80.011741) scale(1, -1) rotate(45.000000) translate(-80.557480, -80.011741) "></path>
                <g id="Group" transform="translate(108.000000, 107.500000) rotate(45.000000) translate(-108.000000, -107.500000) translate(38.000000, 96.000000)" fill="#246BFD">
                    <path d="M120.03658,0.280599845 C120.405641,0.280599845 120.769634,0.36652685 121.099732,0.531575977 L138.368132,9.16577628 C139.542458,9.75293889 140.018447,11.1809069 139.431284,12.3552321 C139.20125,12.815301 138.828201,13.1883497 138.368132,13.4183841 L121.099732,22.0525844 C119.925407,22.639747 118.497439,22.1637577 117.910276,20.9894324 C117.745227,20.6593342 117.6593,20.2953415 117.6593,19.9262805 L117.659106,14.2630791 L22.4121061,14.2630791 L22.4125875,19.9262805 C22.4125875,21.239216 21.348243,22.3035605 20.0353075,22.3035605 C19.6662464,22.3035605 19.3022537,22.2176335 18.9721555,22.0525844 L1.7037549,13.4183841 C0.529429679,12.8312215 0.0534403362,11.4032534 0.640602947,10.2289282 C0.870637362,9.7688594 1.24368607,9.39581069 1.7037549,9.16577628 L18.9721555,0.531575977 C20.1464807,-0.0555866339 21.5744487,0.420402709 22.1616114,1.59472793 C22.3266605,1.92482618 22.4125875,2.28881882 22.4125875,2.65787988 L22.4121061,8.32007909 L117.659106,8.32007909 L117.6593,2.65787988 C117.6593,1.34494437 118.723644,0.280599845 120.03658,0.280599845 Z" id="Combined-Shape"></path>
                </g>
            </g>
        </g>
    </g>
</svg>