<?xml version="1.0" encoding="UTF-8"?>
<svg width="216px" height="216px" viewBox="0 0 216 216" version="1.1" xmlns="http://www.w3.org/2000/svg" xmlns:xlink="http://www.w3.org/1999/xlink">
    <!-- Generator: Sketch 62 (91390) - https://sketch.com -->
    <title>nb</title>
    <desc>Created with Sketch.</desc>
    <g id="Page-1" stroke="none" stroke-width="1" fill="none" fill-rule="evenodd">
        <g id="Desktop-HD-Copy" transform="translate(-528.000000, -1022.000000)">
            <g id="nb" transform="translate(528.000000, 1022.000000)">
                <g id="cube" fill="#64707F" fill-opacity="0.497268357">
                    <rect id="Rectangle" x="27" y="27" width="50" height="50" rx="7"></rect>
                    <rect id="Rectangle" x="83" y="27" width="50" height="50" rx="7"></rect>
                    <rect id="Rectangle" x="27" y="83" width="50" height="50" rx="7"></rect>
                    <rect id="Rectangle" x="83" y="83" width="50" height="50" rx="7"></rect>
                    <rect id="Rectangle" x="139" y="83" width="50" height="50" rx="7"></rect>
                    <rect id="Rectangle" x="27" y="139" width="50" height="50" rx="7"></rect>
                    <rect id="Rectangle" x="83" y="139" width="50" height="50" rx="7"></rect>
                    <rect id="Rectangle" x="139" y="139" width="50" height="50" rx="7"></rect>
                    <rect id="Rectangle" x="27" y="0" width="50" height="21" rx="10.5"></rect>
                    <rect id="Rectangle" x="83" y="0" width="50" height="21" rx="10.5"></rect>
                    <rect id="Rectangle" x="139" y="0" width="50" height="21" rx="10.5"></rect>
                    <rect id="Rectangle" x="195" y="27" width="21" height="50" rx="10.5"></rect>
                    <rect id="Rectangle" x="195" y="83" width="21" height="50" rx="10.5"></rect>
                    <rect id="Rectangle" x="195" y="139" width="21" height="50" rx="10.5"></rect>
                    <rect id="Rectangle" x="0" y="27" width="21" height="50" rx="10.5"></rect>
                    <rect id="Rectangle" x="0" y="83" width="21" height="50" rx="10.5"></rect>
                    <rect id="Rectangle" x="0" y="139" width="21" height="50" rx="10.5"></rect>
                    <rect id="Rectangle" x="27" y="195" width="50" height="21" rx="10.5"></rect>
                    <rect id="Rectangle" x="83" y="195" width="50" height="21" rx="10.5"></rect>
                    <rect id="Rectangle" x="139" y="195" width="50" height="21" rx="10.5"></rect>
                    <rect id="Rectangle" x="139" y="27" width="50" height="50" rx="7"></rect>
                </g>
                <path d="M146.313017,98.3146488 C146.90018,97.1403236 148.328148,96.6643343 149.502473,97.2514969 L149.502473,97.2514969 L166.770874,105.885697 C167.230942,106.115732 167.603991,106.48878 167.834026,106.948849 C168.421188,108.123174 167.945199,109.551142 166.770874,110.138305 L166.770874,110.138305 L149.502473,118.772505 C149.172375,118.937554 148.808382,119.023481 148.439321,119.023481 C147.126386,119.023481 146.062041,117.959137 146.062041,116.646201 L146.062041,116.646201 L146.062,110.983 L69.023,110.983 L69.0234814,116.646201 C69.0234814,117.959137 67.9591369,119.023481 66.6462014,119.023481 C66.2771403,119.023481 65.9131477,118.937554 65.5830494,118.772505 L48.3146488,110.138305 C47.1403236,109.551142 46.6643343,108.123174 47.2514969,106.948849 C47.4815313,106.48878 47.85458,106.115732 48.3146488,105.885697 L65.5830494,97.2514969 C66.7573747,96.6643343 68.1853427,97.1403236 68.7725053,98.3146488 C68.9375544,98.6447471 69.0234814,99.0087397 69.0234814,99.3778008 L69.023,105.04 L146.062,105.04 L146.062041,99.3778008 C146.062041,99.0825519 146.117034,98.7905469 146.223537,98.5165445 Z" id="Combined-Shape" fill="#246BFD"></path>
                <g id="Group" transform="translate(108.000000, 108.500000) rotate(45.000000) translate(-108.000000, -108.500000) translate(38.000000, 97.000000)" fill="#246BFD">
                    <path d="M120.03658,0.280599845 C120.405641,0.280599845 120.769634,0.36652685 121.099732,0.531575977 L138.368132,9.16577628 C139.542458,9.75293889 140.018447,11.1809069 139.431284,12.3552321 C139.20125,12.815301 138.828201,13.1883497 138.368132,13.4183841 L121.099732,22.0525844 C119.925407,22.639747 118.497439,22.1637577 117.910276,20.9894324 C117.745227,20.6593342 117.6593,20.2953415 117.6593,19.9262805 L117.659106,14.2630791 L22.4121061,14.2630791 L22.4125875,19.9262805 C22.4125875,21.239216 21.348243,22.3035605 20.0353075,22.3035605 C19.6662464,22.3035605 19.3022537,22.2176335 18.9721555,22.0525844 L1.7037549,13.4183841 C0.529429679,12.8312215 0.0534403362,11.4032534 0.640602947,10.2289282 C0.870637362,9.7688594 1.24368607,9.39581069 1.7037549,9.16577628 L18.9721555,0.531575977 C20.1464807,-0.0555866339 21.5744487,0.420402709 22.1616114,1.59472793 C22.3266605,1.92482618 22.4125875,2.28881882 22.4125875,2.65787988 L22.4121061,8.32007909 L117.659106,8.32007909 L117.6593,2.65787988 C117.6593,1.34494437 118.723644,0.280599845 120.03658,0.280599845 Z" id="Combined-Shape"></path>
                </g>
            </g>
        </g>
    </g>
</svg>