<?xml version="1.0" encoding="UTF-8"?>
<svg width="257px" height="303px" viewBox="0 0 257 303" version="1.1" xmlns="http://www.w3.org/2000/svg" xmlns:xlink="http://www.w3.org/1999/xlink">
    <!-- Generator: Sketch 62 (91390) - https://sketch.com -->
    <title>linux_logo</title>
    <desc>Created with Sketch.</desc>
    <g id="Page-1" stroke="none" stroke-width="1" fill="none" fill-rule="evenodd">
        <g id="Artboard" transform="translate(-1711.000000, -464.000000)" fill="#000000" fill-rule="nonzero">
            <g id="linux_logo" transform="translate(1711.000000, 464.000000)">
                <path d="M123.76,73.8 C123.76,74.8 122.76,74.8 122.76,74.8 L121.76,74.8 C120.76,74.8 120.76,73.8 119.76,72.8 C119.76,72.8 118.76,71.8 118.76,70.8 C118.76,69.8 118.76,69.8 119.76,69.8 L121.76,70.8 C122.76,71.8 123.76,72.8 123.76,73.8 M105.76,63.8 C105.76,58.8 103.76,55.8 100.76,55.8 C100.76,55.8 100.76,56.8 99.76,56.8 L99.76,58.8 L102.76,58.8 C102.76,60.8 103.76,61.8 103.76,63.8 L105.76,63.8 M140.76,58.8 C142.76,58.8 143.76,60.8 144.76,63.8 L146.76,63.8 C145.76,62.8 145.76,61.8 145.76,60.8 C145.76,59.8 145.76,58.8 144.76,57.8 C143.76,56.8 142.76,55.8 141.76,55.8 C141.76,55.8 140.76,56.8 139.76,56.8 C139.76,57.8 140.76,57.8 140.76,58.8 M110.76,74.8 C109.76,74.8 109.76,74.8 109.76,73.8 C109.76,72.8 109.76,71.8 110.76,70.8 C112.76,70.8 113.76,69.8 113.76,69.8 C114.76,69.8 114.76,70.8 114.76,70.8 C114.76,71.8 113.76,72.8 111.76,74.8 L110.76,74.8 M99.76,73.8 C95.76,71.8 94.76,68.8 94.76,63.8 C94.76,60.8 94.76,58.8 96.76,56.8 C97.76,54.8 99.76,53.8 101.76,53.8 C103.76,53.8 104.76,54.8 106.76,56.8 C107.76,59.8 108.76,62.8 108.76,65.8 L108.76,66.8 L108.76,67.8 L109.76,67.8 L109.76,66.8 C110.76,66.8 110.76,64.8 110.76,60.8 C110.76,57.8 110.76,54.8 108.76,51.8 C106.76,48.8 104.76,46.8 100.76,46.8 C97.76,46.8 94.76,48.8 93.76,51.8 C91.76,55.8 91.36,58.8 91.36,63.8 C91.36,67.8 92.76,71.8 96.76,75.8 C97.76,74.8 98.76,74.8 99.76,73.8 M224.76,214.8 C225.76,214.8 225.76,214.4 225.76,213.5 C225.76,211.3 224.76,208.7 221.76,205.8 C218.76,202.8 213.76,200.9 207.76,200.1 C206.76,200 205.76,200 205.76,200 C204.76,199.8 204.76,199.8 203.76,199.8 C202.76,199.7 200.76,199.5 199.76,199.3 C202.76,190 203.76,181.8 203.76,174.6 C203.76,164.6 201.76,157.6 197.76,151.6 C193.76,145.6 189.76,142.6 184.76,141.6 C183.76,142.6 183.76,142.6 183.76,143.6 C188.76,145.6 193.76,149.6 196.76,155.6 C199.76,162.6 200.76,168.6 200.76,175.6 C200.76,181.2 199.76,189.5 195.76,200.1 C191.76,201.7 187.76,205.4 184.76,211.2 C184.76,212.1 184.76,212.6 185.76,212.6 C185.76,212.6 186.76,211.7 187.76,210 C189.76,208.3 190.76,206.6 192.76,204.9 C195.76,203.2 197.76,202.3 200.76,202.3 C205.76,202.3 210.76,203 213.76,204.4 C217.76,205.7 219.76,207.1 220.76,208.7 C221.76,210.2 222.76,211.6 223.76,212.9 C223.76,214.2 224.76,214.8 224.76,214.8 M132.76,69.8 C131.76,68.8 131.76,66.8 131.76,64.8 C131.76,60.8 131.76,58.8 133.76,55.8 C135.76,53.8 137.76,52.8 139.76,52.8 C142.76,52.8 144.76,54.8 146.76,56.8 C147.76,59.8 148.76,61.8 148.76,64.8 C148.76,69.8 146.76,72.8 142.76,73.8 C142.76,73.8 143.76,74.8 144.76,74.8 C146.76,74.8 147.76,75.8 149.76,76.8 C150.76,70.8 151.76,66.8 151.76,61.8 C151.76,55.8 150.76,51.8 148.76,48.8 C145.76,45.8 142.76,44.8 138.76,44.8 C135.76,44.8 132.76,45.8 129.76,47.8 C127.76,50.8 126.76,52.8 126.76,55.8 C126.76,60.8 127.76,64.8 129.76,68.8 C130.76,68.8 131.76,69.8 132.76,69.8 M144.76,85.8 C131.76,94.8 121.76,98.8 113.76,98.8 C106.76,98.8 99.76,95.8 93.76,90.8 C94.76,92.8 95.76,94.8 96.76,95.8 L102.76,101.8 C106.76,105.8 111.76,107.8 116.76,107.8 C123.76,107.8 131.76,103.8 141.76,96.8 L150.76,90.8 C152.76,88.8 154.76,86.8 154.76,83.8 C154.76,82.8 154.76,81.8 153.76,81.8 C152.76,79.8 147.76,76.8 137.76,73.8 C128.76,69.8 121.76,67.8 117.76,67.8 C114.76,67.8 109.76,69.8 102.76,73.8 C96.76,77.8 92.76,81.8 92.76,85.8 C92.76,85.8 93.76,86.8 94.76,88.8 C100.76,93.8 106.76,96.8 112.76,96.8 C120.76,96.8 130.76,92.8 143.76,82.8 L143.76,84.8 C144.76,84.8 144.76,85.8 144.76,85.8 M167.76,287.8 C171.76,295.32 178.76,299.1 186.76,299.1 C188.76,299.1 190.76,298.8 192.76,298.2 C194.76,297.8 196.76,297.1 197.76,296.3 C198.76,295.6 199.76,294.9 200.76,294.1 C202.76,293.4 202.76,292.9 203.76,292.4 L220.76,277.7 C224.76,274.51 228.76,271.72 233.76,269.3 C237.76,266.9 241.76,265.3 243.76,264.4 C246.76,263.6 248.76,262.4 250.76,260.8 C251.76,259.3 252.76,257.4 252.76,255 C252.76,252.1 250.76,249.9 248.76,248.3 C246.76,246.7 244.76,245.6 242.76,244.9 C240.76,244.2 238.76,242.6 235.76,239.9 C233.76,237.3 231.76,233.7 230.76,229 L229.76,223.2 C228.76,220.5 228.76,218.5 227.76,217.4 C227.76,217.1 227.76,217 226.76,217 C225.76,217 223.76,217.9 222.76,219.6 C220.76,221.3 218.76,223.2 216.76,225.2 C215.76,227.2 212.76,229 210.76,230.7 C207.76,232.4 204.76,233.3 202.76,233.3 C194.76,233.3 190.76,231.1 187.76,226.8 C185.76,223.6 184.76,219.9 183.76,215.7 C181.76,214 180.76,213.1 178.76,213.1 C173.76,213.1 171.76,218.3 171.76,228.8 L171.76,232.1 L171.76,243.7 L171.76,252.6 L171.76,256.9 L171.76,259.9 C171.76,260.8 170.76,262.8 170.76,265.9 C169.76,269 169.76,272.52 169.76,276.5 L167.76,287.6 L167.76,287.77 M22.76,282.48 C32.06,283.84 42.76,286.75 54.86,291.19 C66.96,295.59 74.36,297.89 77.06,297.89 C84.06,297.89 89.86,294.79 94.66,288.8 C95.66,286.86 95.66,284.58 95.66,281.96 C95.66,272.51 89.96,260.56 78.56,246.06 L71.76,236.96 C70.36,235.06 68.66,232.16 66.46,228.26 C64.36,224.36 62.46,221.36 60.96,219.26 C59.66,216.96 57.56,214.66 54.86,212.36 C52.26,210.06 49.26,208.56 45.96,207.76 C41.76,208.56 38.86,209.96 37.46,211.86 C36.06,213.76 35.26,215.86 35.06,218.06 C34.76,220.16 34.16,221.56 33.16,222.26 C32.16,222.86 30.46,223.36 28.16,223.86 C27.66,223.86 26.76,223.86 25.46,223.96 L22.76,223.96 C17.46,223.96 13.86,224.56 11.96,225.56 C9.46,228.46 8.16,231.76 8.16,235.26 C8.16,236.86 8.56,239.56 9.36,243.36 C10.16,247.06 10.56,250.06 10.56,252.16 C10.56,256.26 9.36,260.36 6.86,264.46 C4.36,268.76 3.06,271.96 3.06,274.24 C4.06,278.12 10.66,280.85 22.76,282.45 M56.06,191.55 C56.06,184.65 57.86,177.05 61.56,168.05 C65.16,159.05 68.76,153.05 72.26,149.05 C72.06,148.05 71.56,148.05 70.76,148.05 L69.76,147.05 C66.86,150.05 63.36,157.05 59.16,167.05 C54.96,176.05 52.76,184.35 52.76,190.45 C52.76,194.95 53.86,198.85 55.86,202.25 C58.06,205.55 63.36,210.35 71.76,216.45 L82.36,223.35 C93.66,233.15 99.66,239.95 99.66,243.95 C99.66,246.05 98.66,248.15 95.66,250.45 C93.66,252.85 90.96,254.05 88.66,254.05 C88.46,254.05 88.36,254.25 88.36,254.75 C88.36,254.85 89.36,256.85 91.46,260.75 C95.66,266.45 104.66,269.25 116.66,269.25 C138.66,269.25 155.66,260.25 168.66,242.25 C168.66,237.25 168.66,234.15 167.66,232.85 L167.66,229.15 C167.66,222.65 168.66,217.75 170.66,214.55 C172.66,211.35 174.66,209.85 177.66,209.85 C179.66,209.85 181.66,210.55 183.66,212.05 C184.66,204.35 184.66,197.65 184.66,191.65 C184.66,182.55 184.66,175.05 182.66,168.05 C181.66,162.05 179.66,157.05 177.66,153.05 C175.66,150.05 173.66,147.05 171.66,144.05 C169.66,141.05 168.66,138.05 166.66,135.05 C165.66,131.05 164.66,128.05 164.66,123.05 C161.66,118.05 159.66,113.05 156.66,108.05 C154.66,103.05 152.66,98.05 150.66,94.05 L141.66,101.05 C131.66,108.05 123.66,111.05 116.66,111.05 C110.66,111.05 105.66,110.05 102.66,106.05 L96.66,101.05 C96.66,104.05 95.66,108.05 93.66,112.05 L87.36,124.05 C84.56,131.05 83.06,135.05 82.76,138.05 C82.36,140.05 82.06,142.05 81.86,142.05 L74.36,157.05 C66.26,172.05 62.16,185.95 62.16,197.45 C62.16,199.75 62.36,202.15 62.76,204.55 C58.26,201.45 56.06,197.15 56.06,191.55 M127.66,286.15 C114.66,286.15 104.66,287.91 97.66,291.4 L97.66,291.1 C92.66,297.1 87.06,300.2 79.26,300.2 C74.36,300.2 66.66,298.3 56.26,294.5 C45.76,290.9 36.46,288.14 28.36,286.32 C27.56,286.09 25.76,285.75 22.86,285.29 C20.06,284.84 17.46,284.38 15.16,283.92 C13.06,283.47 10.66,282.79 8.06,281.87 C5.56,281.08 3.56,280.05 2.06,278.8 C0.68,277.54 0,276.12 0,274.53 C0,272.93 0.34,271.22 1.02,269.4 C1.66,268.3 2.36,267.2 3.06,266.2 C3.76,265.1 4.36,264.1 4.76,263.1 C5.36,262.2 5.76,261.3 6.16,260.3 C6.56,259.4 6.96,258.5 7.16,257.4 C7.36,256.4 7.56,255.4 7.56,254.4 C7.56,253.4 7.16,250.4 6.36,245.1 C5.56,239.9 5.16,236.6 5.16,235.2 C5.16,230.8 6.16,227.3 8.36,224.8 C10.56,222.3 12.66,221 14.86,221 L26.36,221 C27.26,221 28.66,220.5 30.76,219.3 C31.46,217.7 32.06,216.4 32.46,215.2 C32.96,214 33.16,213.1 33.36,212.7 C33.56,212.1 33.76,211.5 33.96,211 C34.36,210.3 34.86,209.5 35.56,208.7 C34.76,207.7 34.36,206.4 34.36,204.8 C34.36,203.7 34.36,202.7 34.56,202.1 C34.56,198.5 36.26,193.4 39.86,186.7 L43.36,180.4 C46.26,175 48.46,171 50.06,167 C51.76,163 53.56,157 55.56,149 C57.16,142 60.96,135 66.96,128 L74.46,119 C79.66,113 83.06,108 84.96,104 C86.86,100 87.86,95 87.86,91 C87.86,89 87.36,83 86.26,73 C85.26,63 84.76,53 84.76,44 C84.76,37 85.36,32 86.66,27 C87.96,22 90.26,17 93.66,13 C96.66,9 100.66,5 106.66,3 C112.66,1 119.66,0 127.66,0 C130.66,0 133.66,0 136.66,1 C139.66,1 143.66,2 148.66,4 C152.66,6 156.66,8 159.66,11 C163.66,14 166.66,19 169.66,24 C171.66,30 173.66,36 174.66,44 C175.66,49 175.66,54 176.66,61 C176.66,67 177.66,71 177.66,74 C178.66,77 178.66,81 179.66,86 C180.66,90 181.66,94 183.66,97 C185.66,101 187.66,105 190.66,109 C193.66,114 197.66,119 201.66,125 C210.66,135 217.66,146 221.66,157 C226.66,167 229.66,180 229.66,193.9 C229.66,200.8 228.66,207.5 226.66,214 C228.66,214 229.66,214.8 230.66,216.2 C231.66,217.6 232.66,220.6 233.66,225.3 L234.66,232.7 C235.66,234.9 236.66,237 239.66,238.8 C241.66,240.6 243.66,242.1 246.66,243.3 C248.66,244.3 251.66,245.7 253.66,247.5 C255.66,249.5 256.66,251.6 256.66,253.8 C256.66,257.2 255.66,259.7 253.66,261.5 C251.66,263.5 249.66,264.9 246.66,265.8 C244.66,266.8 240.66,268.8 234.66,271.62 C229.66,274.58 224.66,278.17 219.66,282.42 L209.66,290.93 C205.66,294.83 201.66,297.63 198.66,299.33 C195.66,301.13 191.66,302.03 187.66,302.03 L180.66,301.23 C172.66,299.13 167.66,295.13 164.66,289.03 C148.66,287.09 135.66,286.13 127.66,286.13" id="Shape"></path>
            </g>
        </g>
    </g>
</svg>