<?xml version="1.0" ?><svg data-name="Layer 1" id="Layer_1" viewBox="0 0 128 128" xmlns="http://www.w3.org/2000/svg"><title/><g><path d="M119.70347,71.46191l-.033-7.05981-.00031-.3299.00031-.3299.033-7.05988h-.04071l-.02527-25.07233A3.13124,3.13124,0,0,0,118.054,28.443L66.65568,2.546a5.717,5.717,0,0,0-5.50928,0L9.45115,28.34411c-.92371.132-1.2536,2.07837-1.18762,3.39795L8.21317,56.68243H8.19755V63.7423l.00067.32971-.00067.33008v7.05981h.01563l.05035,24.90741c-.066,1.3526.26392,3.266,1.18762,3.43091L61.1464,125.56536a5.72314,5.72314,0,0,0,5.50928.033L118.054,99.70129a3.13124,3.13124,0,0,0,1.5835-3.16705l.02527-25.07233Z" style="fill: #333"/><path d="M107.62917,21.31725l12.07431,6.10313a1.21735,1.21735,0,0,1,.132,2.14434l-13.82278,7.02685a2.45973,2.45973,0,0,1-2.04537,0l-13.55886-6.697c-.56083-.29691-.42887-1.51754.16495-1.81445l13.36092-6.8619C105.41884,20.45952,106.04565,20.5255,107.62917,21.31725Z" style="fill: #f7f7f7"/><path d="M87.2414,31.34619l12.07431,6.13612a1.22085,1.22085,0,0,1,.16495,2.14434L85.295,46.78547a2.38459,2.38459,0,0,1-2.01239,0l-13.55886-6.697c-.59382-.29691-.42887-1.51754.132-1.81445l13.72381-7.02685C85.06406,30.48845,85.69087,30.55443,87.2414,31.34619Z" style="fill: #c75c5c"/><path d="M66.91961,41.60605l12.07431,6.10313a1.20655,1.20655,0,0,1,.132,2.14434L65.07217,56.97936a2.51306,2.51306,0,0,1-2.01239-.033l-13.55886-6.697c-.59382-.29691-.42887-1.51754.16495-1.81445l13.59185-6.92788C64.70928,40.74832,65.33609,40.8143,66.91961,41.60605Z" style="fill: #c75c5c"/><path d="M86.87851,10.99141l12.07431,6.10313a1.20655,1.20655,0,0,1,.132,2.14434L85.262,26.26574a2.51213,2.51213,0,0,1-2.01239,0L69.69076,19.5358c-.59382-.26392-.42887-1.48455.132-1.78146l13.39391-6.8619C84.70117,10.13367,85.328,10.19965,86.87851,10.99141Z" style="fill: #c75c5c"/><path d="M66.52373,21.02034,78.598,27.12348a1.20582,1.20582,0,0,1,.132,2.14434l-14.18566,7.1918a2.51179,2.51179,0,0,1-2.01239,0L48.97309,29.72968c-.59382-.26392-.42887-1.48455.16495-1.78146l13.69082-7.02685C64.3134,20.16261,64.94021,20.22859,66.52373,21.02034Z" style="fill: #f5cf67"/><path d="M46.16895,31.28021l12.07431,6.10313a1.22028,1.22028,0,0,1,.16495,2.14434L44.3545,46.62052a2.45973,2.45973,0,0,1-2.04537,0l-13.55886-6.697c-.56083-.29691-.42887-1.51754.16495-1.81445l13.59185-6.92788C43.99161,30.42247,44.61842,30.48845,46.16895,31.28021Z" style="fill: #c75c5c"/><path d="M66.2928.63258,78.36711,6.7687a1.17972,1.17972,0,0,1,.132,2.11135L64.67629,15.90691a2.38459,2.38459,0,0,1-2.01239,0L49.10505,9.21c-.59382-.29691-.42887-1.51754.132-1.81445L62.63092.53361C64.11546-.22516,64.74227-.15918,66.2928.63258Z" style="fill: #c75c5c"/><path d="M45.938,10.6945l12.07431,6.10313a1.218,1.218,0,0,1,.132,2.14434L43.95862,26.10079a2.38428,2.38428,0,0,1-2.01238,0l-13.55886-6.697c-.59382-.29691-.42887-1.51754.16495-1.81445l13.69082-7.02685C43.7277,9.80377,44.3545,9.90274,45.938,10.6945Z" style="fill: #21a64b"/><path d="M25.58324,20.92138l12.07431,6.10313a1.22028,1.22028,0,0,1,.16495,2.14434L23.76879,36.29468a2.46061,2.46061,0,0,1-2.04537-.033l-13.55886-6.697c-.59382-.26392-.42887-1.48455.16495-1.78146l13.59185-6.96087C23.40591,20.06364,24.03271,20.12962,25.58324,20.92138Z" style="fill: #c75c5c"/><path d="M8.19755,54.04325,21.7894,61.03712c.72578.39588,1.51754.69279,1.51754,1.51754l-.033,17.78157c0,.82475-.82475,2.24331-1.55053,1.88043L8.09858,75.1568A3.4744,3.4744,0,0,1,6.614,72.61658L6.68,55.56079C6.68,54.70305,7.47178,53.64737,8.19755,54.04325Z" style="fill: #f5cf67"/><path d="M8.16456,78.68672l13.59185,7.12582c.75877.36289,1.51754.6598,1.51754,1.51754l.033,17.71559c0,.82475-.79176,2.24331-1.55053,1.84744L8.09858,99.83326A3.45645,3.45645,0,0,1,6.614,97.293l.033-17.08878C6.647,79.37951,7.4058,78.32383,8.16456,78.68672Z" style="fill: #21a64b"/><path d="M8.16456,29.56473,21.7894,36.49262c.72578.36289,1.51754.69279,1.51754,1.51754V55.5278c0,.82475-.82475,2.24331-1.55053,1.84744L8.13157,50.34838A3.581,3.581,0,0,1,6.647,47.80816V31.08227C6.647,30.25752,7.43879,29.20184,8.16456,29.56473Z" style="fill: #f5cf67"/><path d="M28.51934,64.6l13.62484,6.89489c.75877.39588,1.51754.69279,1.51754,1.51754l.099,17.91353c0,.82475-.82475,2.24331-1.58352,1.84744L28.51934,85.71357a3.45645,3.45645,0,0,1-1.48455-2.54022l-.033-17.05579C27.00181,65.29281,27.79356,64.20415,28.51934,64.6Z" style="fill: #fa3"/><path d="M28.51934,89.2435l13.62484,6.99386c.72578.39588,1.51754.69279,1.51754,1.51754l.033,17.81456c0,.82475-.82475,2.24331-1.55053,1.84744L28.42037,110.357a3.581,3.581,0,0,1-1.48455-2.54022l.066-17.0228C27.00181,89.93628,27.79356,88.88061,28.51934,89.2435Z" style="fill: #f5cf67"/><path d="M28.51934,39.62666l13.62484,6.89489c.75877.39588,1.51754.69279,1.51754,1.51754l.033,18.27641c0,.82475-.82475,2.2763-1.55053,1.88043L28.48635,60.87217a3.581,3.581,0,0,1-1.48455-2.54022V41.14419C27.00181,40.28646,27.79356,39.23078,28.51934,39.62666Z" style="fill: #5077ba"/><path d="M48.84113,75.02484,62.499,82.08468c.72578.36289,1.48455.69279,1.51754,1.51754l.033,17.81456c0,.82475-.79176,2.24331-1.55053,1.84744L48.77515,96.20437a3.581,3.581,0,0,1-1.48455-2.54022l.033-17.12177C47.3236,75.71763,48.11535,74.662,48.84113,75.02484Z" style="fill: #f5cf67"/><path d="M48.77515,99.73429,62.499,106.79413c.72578.39588,1.51754.69279,1.51754,1.55053v17.71559c.033.85774-.79176,2.24331-1.55053,1.88043l-13.7568-7.12582a3.4744,3.4744,0,0,1-1.48455-2.54022l.033-17.0228C47.25762,100.39409,48.04937,99.33841,48.77515,99.73429Z" style="fill: #5077ba"/><path d="M48.87412,49.85353,62.466,56.78142c.75877.36289,1.51754.6598,1.55053,1.51754l.033,18.27641c0,.82475-.82475,2.24331-1.58352,1.84744L48.87412,71.39595a3.4744,3.4744,0,0,1-1.48455-2.54022l-.033-17.48466C47.35659,50.54632,48.11535,49.49064,48.87412,49.85353Z" style="fill: #f7f7f7"/><path d="M119.80245,54.04325,106.2106,61.03712c-.72578.39588-1.51754.69279-1.51754,1.51754l.033,17.78157c0,.82475.82475,2.24331,1.55053,1.88043l13.62484-7.05984a3.4744,3.4744,0,0,0,1.48455-2.54022l-.066-17.05579C121.32,54.70305,120.52822,53.64737,119.80245,54.04325Z" style="fill: #21a64b"/><path d="M119.83544,78.68672l-13.59185,7.12582c-.75877.36289-1.51754.6598-1.51754,1.51754l-.033,17.71559c0,.82475.79176,2.24331,1.55053,1.84744l13.65783-7.05984A3.45645,3.45645,0,0,0,121.386,97.293l-.033-17.08878C121.353,79.37951,120.5942,78.32383,119.83544,78.68672Z" style="fill: #f7f7f7"/><path d="M119.83544,29.56473,106.2106,36.49262c-.72578.36289-1.51754.69279-1.51754,1.51754V55.5278c0,.82475.82475,2.24331,1.55053,1.84744l13.62484-7.02685a3.4744,3.4744,0,0,0,1.48455-2.54022V31.08227C121.353,30.25752,120.5942,29.20184,119.83544,29.56473Z" style="fill: #fa3"/><path d="M99.48066,64.6,85.85582,71.49492c-.75877.39588-1.51754.69279-1.51754,1.51754L84.2723,90.926c-.033.82475.79176,2.24331,1.55053,1.84744l13.65783-7.05984a3.45645,3.45645,0,0,0,1.48455-2.54022l.033-17.05579C100.99819,65.29281,100.20644,64.20415,99.48066,64.6Z" style="fill: #fa3"/><path d="M99.48066,89.2435,85.85582,96.23736c-.72578.39588-1.51754.69279-1.51754,1.51754l-.033,17.81456c0,.82475.82475,2.24331,1.55053,1.84744L99.57963,110.357a3.581,3.581,0,0,0,1.48455-2.54022l-.066-17.0228C100.99819,89.93628,100.23943,88.88061,99.48066,89.2435Z" style="fill: #c75c5c"/><path d="M99.48066,39.62666,85.85582,46.52155c-.75877.39588-1.51754.69279-1.51754,1.51754l-.033,18.27641c0,.82475.82475,2.2763,1.55053,1.88043l13.65783-7.32376a3.581,3.581,0,0,0,1.48455-2.54022V41.14419C100.99819,40.28646,100.20644,39.23078,99.48066,39.62666Z" style="fill: #21a64b"/><path d="M79.15887,75.02484,65.534,82.08468c-.75877.36289-1.51754.69279-1.55053,1.51754l-.033,17.81456c0,.82475.79176,2.24331,1.55053,1.84744l13.72381-7.05984a3.581,3.581,0,0,0,1.48455-2.54022l-.033-17.12177C80.6764,75.71763,79.88465,74.662,79.15887,75.02484Z" style="fill: #21a64b"/><path d="M79.22485,99.73429,65.501,106.79413c-.72578.39588-1.51754.69279-1.51754,1.55053v17.71559c0,.85774.79176,2.24331,1.55053,1.88043l13.7568-7.12582a3.37483,3.37483,0,0,0,1.48455-2.54022l-.033-17.0228C80.74238,100.39409,79.95063,99.33841,79.22485,99.73429Z" style="fill: #21a64b"/><path d="M79.12588,49.85353,65.534,56.78142c-.75877.36289-1.51754.6598-1.51754,1.51754l-.066,18.27641c0,.82475.82475,2.24331,1.58352,1.84744l13.59185-7.02685a3.4744,3.4744,0,0,0,1.48455-2.54022l.033-17.48466C80.64341,50.54632,79.88465,49.49064,79.12588,49.85353Z" style="fill: #21a64b"/></g></svg>